<svg width="1280" height="1470" viewBox="0 0 1280 1470" fill="none" xmlns="http://www.w3.org/2000/svg">
<rect width="1280" height="1470" fill="white"/>
<mask id="mask0" mask-type="alpha" maskUnits="userSpaceOnUse" x="0" y="0" width="1280" height="1470">
<rect width="1280" height="1470" fill="white"/>
</mask>
<g mask="url(#mask0)">
<rect x="-511.945" y="725" width="724" height="724" rx="100" transform="rotate(-45 -511.945 725)" fill="#3138D1"/>
<path fill-rule="evenodd" clip-rule="evenodd" d="M65.9444 498.472C65.9444 499.838 64.8375 500.944 63.4722 500.944C62.1069 500.944 61 499.838 61 498.472C61 497.107 62.1069 496 63.4722 496C64.8375 496 65.9444 497.107 65.9444 498.472" fill="white"/>
<path fill-rule="evenodd" clip-rule="evenodd" d="M90.6666 498.472C90.6666 499.838 89.5597 500.944 88.1944 500.944C86.8291 500.944 85.7222 499.838 85.7222 498.472C85.7222 497.107 86.8291 496 88.1944 496C89.5597 496 90.6666 497.107 90.6666 498.472" fill="white"/>
<path fill-rule="evenodd" clip-rule="evenodd" d="M115.389 498.472C115.389 499.838 114.282 500.944 112.917 500.944C111.551 500.944 110.444 499.838 110.444 498.472C110.444 497.107 111.551 496 112.917 496C114.282 496 115.389 497.107 115.389 498.472" fill="white"/>
<path fill-rule="evenodd" clip-rule="evenodd" d="M140.111 498.472C140.111 499.838 139.004 500.944 137.639 500.944C136.273 500.944 135.167 499.838 135.167 498.472C135.167 497.107 136.273 496 137.639 496C139.004 496 140.111 497.107 140.111 498.472" fill="white"/>
<path fill-rule="evenodd" clip-rule="evenodd" d="M164.833 498.472C164.833 499.838 163.726 500.944 162.361 500.944C160.996 500.944 159.889 499.838 159.889 498.472C159.889 497.107 160.996 496 162.361 496C163.726 496 164.833 497.107 164.833 498.472" fill="white"/>
<path fill-rule="evenodd" clip-rule="evenodd" d="M189.556 498.472C189.556 499.838 188.449 500.944 187.084 500.944C185.718 500.944 184.611 499.838 184.611 498.472C184.611 497.107 185.718 496 187.084 496C188.449 496 189.556 497.107 189.556 498.472" fill="white"/>
<path fill-rule="evenodd" clip-rule="evenodd" d="M214.278 498.472C214.278 499.838 213.171 500.944 211.806 500.944C210.44 500.944 209.333 499.838 209.333 498.472C209.333 497.107 210.44 496 211.806 496C213.171 496 214.278 497.107 214.278 498.472" fill="white"/>
<path fill-rule="evenodd" clip-rule="evenodd" d="M239 498.472C239 499.838 237.893 500.944 236.528 500.944C235.163 500.944 234.056 499.838 234.056 498.472C234.056 497.107 235.163 496 236.528 496C237.893 496 239 497.107 239 498.472" fill="white"/>
<path fill-rule="evenodd" clip-rule="evenodd" d="M65.9444 523.194C65.9444 524.56 64.8375 525.667 63.4722 525.667C62.1069 525.667 61 524.56 61 523.194C61 521.829 62.1069 520.722 63.4722 520.722C64.8375 520.722 65.9444 521.829 65.9444 523.194" fill="white"/>
<path fill-rule="evenodd" clip-rule="evenodd" d="M90.6666 523.194C90.6666 524.56 89.5597 525.667 88.1944 525.667C86.8291 525.667 85.7222 524.56 85.7222 523.194C85.7222 521.829 86.8291 520.722 88.1944 520.722C89.5597 520.722 90.6666 521.829 90.6666 523.194" fill="white"/>
<path fill-rule="evenodd" clip-rule="evenodd" d="M115.389 523.194C115.389 524.56 114.282 525.667 112.917 525.667C111.551 525.667 110.444 524.56 110.444 523.194C110.444 521.829 111.551 520.722 112.917 520.722C114.282 520.722 115.389 521.829 115.389 523.194" fill="white"/>
<path fill-rule="evenodd" clip-rule="evenodd" d="M140.111 523.194C140.111 524.56 139.004 525.667 137.639 525.667C136.273 525.667 135.167 524.56 135.167 523.194C135.167 521.829 136.273 520.722 137.639 520.722C139.004 520.722 140.111 521.829 140.111 523.194" fill="white"/>
<path fill-rule="evenodd" clip-rule="evenodd" d="M164.833 523.194C164.833 524.56 163.726 525.667 162.361 525.667C160.996 525.667 159.889 524.56 159.889 523.194C159.889 521.829 160.996 520.722 162.361 520.722C163.726 520.722 164.833 521.829 164.833 523.194" fill="white"/>
<path fill-rule="evenodd" clip-rule="evenodd" d="M189.556 523.194C189.556 524.56 188.449 525.667 187.084 525.667C185.718 525.667 184.611 524.56 184.611 523.194C184.611 521.829 185.718 520.722 187.084 520.722C188.449 520.722 189.556 521.829 189.556 523.194" fill="white"/>
<path fill-rule="evenodd" clip-rule="evenodd" d="M214.278 523.194C214.278 524.56 213.171 525.667 211.806 525.667C210.44 525.667 209.333 524.56 209.333 523.194C209.333 521.829 210.44 520.722 211.806 520.722C213.171 520.722 214.278 521.829 214.278 523.194" fill="white"/>
<path fill-rule="evenodd" clip-rule="evenodd" d="M239 523.194C239 524.56 237.893 525.667 236.528 525.667C235.163 525.667 234.056 524.56 234.056 523.194C234.056 521.829 235.163 520.722 236.528 520.722C237.893 520.722 239 521.829 239 523.194" fill="white"/>
<path fill-rule="evenodd" clip-rule="evenodd" d="M65.9444 547.917C65.9444 549.282 64.8375 550.389 63.4722 550.389C62.1069 550.389 61 549.282 61 547.917C61 546.551 62.1069 545.444 63.4722 545.444C64.8375 545.444 65.9444 546.551 65.9444 547.917" fill="white"/>
<path fill-rule="evenodd" clip-rule="evenodd" d="M90.6666 547.917C90.6666 549.282 89.5597 550.389 88.1944 550.389C86.8291 550.389 85.7222 549.282 85.7222 547.917C85.7222 546.551 86.8291 545.444 88.1944 545.444C89.5597 545.444 90.6666 546.551 90.6666 547.917" fill="white"/>
<path fill-rule="evenodd" clip-rule="evenodd" d="M115.389 547.917C115.389 549.282 114.282 550.389 112.917 550.389C111.551 550.389 110.444 549.282 110.444 547.917C110.444 546.551 111.551 545.444 112.917 545.444C114.282 545.444 115.389 546.551 115.389 547.917" fill="white"/>
<path fill-rule="evenodd" clip-rule="evenodd" d="M140.111 547.917C140.111 549.282 139.004 550.389 137.639 550.389C136.273 550.389 135.167 549.282 135.167 547.917C135.167 546.551 136.273 545.444 137.639 545.444C139.004 545.444 140.111 546.551 140.111 547.917" fill="white"/>
<path fill-rule="evenodd" clip-rule="evenodd" d="M164.833 547.917C164.833 549.282 163.726 550.389 162.361 550.389C160.996 550.389 159.889 549.282 159.889 547.917C159.889 546.551 160.996 545.444 162.361 545.444C163.726 545.444 164.833 546.551 164.833 547.917" fill="white"/>
<path fill-rule="evenodd" clip-rule="evenodd" d="M189.556 547.917C189.556 549.282 188.449 550.389 187.084 550.389C185.718 550.389 184.611 549.282 184.611 547.917C184.611 546.551 185.718 545.444 187.084 545.444C188.449 545.444 189.556 546.551 189.556 547.917" fill="white"/>
<path fill-rule="evenodd" clip-rule="evenodd" d="M214.278 547.917C214.278 549.282 213.171 550.389 211.806 550.389C210.44 550.389 209.333 549.282 209.333 547.917C209.333 546.551 210.44 545.444 211.806 545.444C213.171 545.444 214.278 546.551 214.278 547.917" fill="white"/>
<path fill-rule="evenodd" clip-rule="evenodd" d="M239 547.917C239 549.282 237.893 550.389 236.528 550.389C235.163 550.389 234.056 549.282 234.056 547.917C234.056 546.551 235.163 545.444 236.528 545.444C237.893 545.444 239 546.551 239 547.917" fill="white"/>
<path fill-rule="evenodd" clip-rule="evenodd" d="M65.9444 572.639C65.9444 574.004 64.8375 575.111 63.4722 575.111C62.1069 575.111 61 574.004 61 572.639C61 571.274 62.1069 570.167 63.4722 570.167C64.8375 570.167 65.9444 571.274 65.9444 572.639" fill="white"/>
<path fill-rule="evenodd" clip-rule="evenodd" d="M90.6666 572.639C90.6666 574.004 89.5597 575.111 88.1944 575.111C86.8291 575.111 85.7222 574.004 85.7222 572.639C85.7222 571.274 86.8291 570.167 88.1944 570.167C89.5597 570.167 90.6666 571.274 90.6666 572.639" fill="white"/>
<path fill-rule="evenodd" clip-rule="evenodd" d="M115.389 572.639C115.389 574.004 114.282 575.111 112.917 575.111C111.551 575.111 110.444 574.004 110.444 572.639C110.444 571.274 111.551 570.167 112.917 570.167C114.282 570.167 115.389 571.274 115.389 572.639" fill="white"/>
<path fill-rule="evenodd" clip-rule="evenodd" d="M140.111 572.639C140.111 574.004 139.004 575.111 137.639 575.111C136.273 575.111 135.167 574.004 135.167 572.639C135.167 571.274 136.273 570.167 137.639 570.167C139.004 570.167 140.111 571.274 140.111 572.639" fill="white"/>
<path fill-rule="evenodd" clip-rule="evenodd" d="M164.833 572.639C164.833 574.004 163.726 575.111 162.361 575.111C160.996 575.111 159.889 574.004 159.889 572.639C159.889 571.274 160.996 570.167 162.361 570.167C163.726 570.167 164.833 571.274 164.833 572.639" fill="white"/>
<path fill-rule="evenodd" clip-rule="evenodd" d="M189.556 572.639C189.556 574.004 188.449 575.111 187.084 575.111C185.718 575.111 184.611 574.004 184.611 572.639C184.611 571.274 185.718 570.167 187.084 570.167C188.449 570.167 189.556 571.274 189.556 572.639" fill="white"/>
<path fill-rule="evenodd" clip-rule="evenodd" d="M214.278 572.639C214.278 574.004 213.171 575.111 211.806 575.111C210.44 575.111 209.333 574.004 209.333 572.639C209.333 571.274 210.44 570.167 211.806 570.167C213.171 570.167 214.278 571.274 214.278 572.639" fill="white"/>
<path fill-rule="evenodd" clip-rule="evenodd" d="M239 572.639C239 574.004 237.893 575.111 236.528 575.111C235.163 575.111 234.056 574.004 234.056 572.639C234.056 571.274 235.163 570.167 236.528 570.167C237.893 570.167 239 571.274 239 572.639" fill="white"/>
<path fill-rule="evenodd" clip-rule="evenodd" d="M65.9444 597.361C65.9444 598.726 64.8375 599.833 63.4722 599.833C62.1069 599.833 61 598.726 61 597.361C61 595.996 62.1069 594.889 63.4722 594.889C64.8375 594.889 65.9444 595.996 65.9444 597.361" fill="white"/>
<path fill-rule="evenodd" clip-rule="evenodd" d="M90.6666 597.361C90.6666 598.726 89.5597 599.833 88.1944 599.833C86.8291 599.833 85.7222 598.726 85.7222 597.361C85.7222 595.996 86.8291 594.889 88.1944 594.889C89.5597 594.889 90.6666 595.996 90.6666 597.361" fill="white"/>
<path fill-rule="evenodd" clip-rule="evenodd" d="M115.389 597.361C115.389 598.726 114.282 599.833 112.917 599.833C111.551 599.833 110.444 598.726 110.444 597.361C110.444 595.996 111.551 594.889 112.917 594.889C114.282 594.889 115.389 595.996 115.389 597.361" fill="white"/>
<path fill-rule="evenodd" clip-rule="evenodd" d="M140.111 597.361C140.111 598.726 139.004 599.833 137.639 599.833C136.273 599.833 135.167 598.726 135.167 597.361C135.167 595.996 136.273 594.889 137.639 594.889C139.004 594.889 140.111 595.996 140.111 597.361" fill="white"/>
<path fill-rule="evenodd" clip-rule="evenodd" d="M164.833 597.361C164.833 598.726 163.726 599.833 162.361 599.833C160.996 599.833 159.889 598.726 159.889 597.361C159.889 595.996 160.996 594.889 162.361 594.889C163.726 594.889 164.833 595.996 164.833 597.361" fill="white"/>
<path fill-rule="evenodd" clip-rule="evenodd" d="M189.556 597.361C189.556 598.726 188.449 599.833 187.084 599.833C185.718 599.833 184.611 598.726 184.611 597.361C184.611 595.996 185.718 594.889 187.084 594.889C188.449 594.889 189.556 595.996 189.556 597.361" fill="white"/>
<path fill-rule="evenodd" clip-rule="evenodd" d="M214.278 597.361C214.278 598.726 213.171 599.833 211.806 599.833C210.44 599.833 209.333 598.726 209.333 597.361C209.333 595.996 210.44 594.889 211.806 594.889C213.171 594.889 214.278 595.996 214.278 597.361" fill="white"/>
<path fill-rule="evenodd" clip-rule="evenodd" d="M239 597.361C239 598.726 237.893 599.833 236.528 599.833C235.163 599.833 234.056 598.726 234.056 597.361C234.056 595.996 235.163 594.889 236.528 594.889C237.893 594.889 239 595.996 239 597.361" fill="white"/>
<path fill-rule="evenodd" clip-rule="evenodd" d="M65.9444 622.083C65.9444 623.449 64.8375 624.556 63.4722 624.556C62.1069 624.556 61 623.449 61 622.083C61 620.718 62.1069 619.611 63.4722 619.611C64.8375 619.611 65.9444 620.718 65.9444 622.083" fill="white"/>
<path fill-rule="evenodd" clip-rule="evenodd" d="M90.6666 622.083C90.6666 623.449 89.5597 624.556 88.1944 624.556C86.8291 624.556 85.7222 623.449 85.7222 622.083C85.7222 620.718 86.8291 619.611 88.1944 619.611C89.5597 619.611 90.6666 620.718 90.6666 622.083" fill="white"/>
<path fill-rule="evenodd" clip-rule="evenodd" d="M115.389 622.083C115.389 623.449 114.282 624.556 112.917 624.556C111.551 624.556 110.444 623.449 110.444 622.083C110.444 620.718 111.551 619.611 112.917 619.611C114.282 619.611 115.389 620.718 115.389 622.083" fill="white"/>
<path fill-rule="evenodd" clip-rule="evenodd" d="M140.111 622.083C140.111 623.449 139.004 624.556 137.639 624.556C136.273 624.556 135.167 623.449 135.167 622.083C135.167 620.718 136.273 619.611 137.639 619.611C139.004 619.611 140.111 620.718 140.111 622.083" fill="white"/>
<path fill-rule="evenodd" clip-rule="evenodd" d="M164.833 622.083C164.833 623.449 163.726 624.556 162.361 624.556C160.996 624.556 159.889 623.449 159.889 622.083C159.889 620.718 160.996 619.611 162.361 619.611C163.726 619.611 164.833 620.718 164.833 622.083" fill="white"/>
<path fill-rule="evenodd" clip-rule="evenodd" d="M189.556 622.083C189.556 623.449 188.449 624.556 187.084 624.556C185.718 624.556 184.611 623.449 184.611 622.083C184.611 620.718 185.718 619.611 187.084 619.611C188.449 619.611 189.556 620.718 189.556 622.083" fill="white"/>
<path fill-rule="evenodd" clip-rule="evenodd" d="M214.278 622.083C214.278 623.449 213.171 624.556 211.806 624.556C210.44 624.556 209.333 623.449 209.333 622.083C209.333 620.718 210.44 619.611 211.806 619.611C213.171 619.611 214.278 620.718 214.278 622.083" fill="white"/>
<path fill-rule="evenodd" clip-rule="evenodd" d="M239 622.083C239 623.449 237.893 624.556 236.528 624.556C235.163 624.556 234.056 623.449 234.056 622.083C234.056 620.718 235.163 619.611 236.528 619.611C237.893 619.611 239 620.718 239 622.083" fill="white"/>
<path fill-rule="evenodd" clip-rule="evenodd" d="M65.9444 646.806C65.9444 648.171 64.8375 649.278 63.4722 649.278C62.1069 649.278 61 648.171 61 646.806C61 645.44 62.1069 644.333 63.4722 644.333C64.8375 644.333 65.9444 645.44 65.9444 646.806" fill="white"/>
<path fill-rule="evenodd" clip-rule="evenodd" d="M90.6666 646.806C90.6666 648.171 89.5597 649.278 88.1944 649.278C86.8291 649.278 85.7222 648.171 85.7222 646.806C85.7222 645.44 86.8291 644.333 88.1944 644.333C89.5597 644.333 90.6666 645.44 90.6666 646.806" fill="white"/>
<path fill-rule="evenodd" clip-rule="evenodd" d="M115.389 646.806C115.389 648.171 114.282 649.278 112.917 649.278C111.551 649.278 110.444 648.171 110.444 646.806C110.444 645.44 111.551 644.333 112.917 644.333C114.282 644.333 115.389 645.44 115.389 646.806" fill="white"/>
<path fill-rule="evenodd" clip-rule="evenodd" d="M140.111 646.806C140.111 648.171 139.004 649.278 137.639 649.278C136.273 649.278 135.167 648.171 135.167 646.806C135.167 645.44 136.273 644.333 137.639 644.333C139.004 644.333 140.111 645.44 140.111 646.806" fill="white"/>
<path fill-rule="evenodd" clip-rule="evenodd" d="M164.833 646.806C164.833 648.171 163.726 649.278 162.361 649.278C160.996 649.278 159.889 648.171 159.889 646.806C159.889 645.44 160.996 644.333 162.361 644.333C163.726 644.333 164.833 645.44 164.833 646.806" fill="white"/>
<path fill-rule="evenodd" clip-rule="evenodd" d="M189.556 646.806C189.556 648.171 188.449 649.278 187.084 649.278C185.718 649.278 184.611 648.171 184.611 646.806C184.611 645.44 185.718 644.333 187.084 644.333C188.449 644.333 189.556 645.44 189.556 646.806" fill="white"/>
<path fill-rule="evenodd" clip-rule="evenodd" d="M214.278 646.806C214.278 648.171 213.171 649.278 211.806 649.278C210.44 649.278 209.333 648.171 209.333 646.806C209.333 645.44 210.44 644.333 211.806 644.333C213.171 644.333 214.278 645.44 214.278 646.806" fill="white"/>
<path fill-rule="evenodd" clip-rule="evenodd" d="M239 646.806C239 648.171 237.893 649.278 236.528 649.278C235.163 649.278 234.056 648.171 234.056 646.806C234.056 645.44 235.163 644.333 236.528 644.333C237.893 644.333 239 645.44 239 646.806" fill="white"/>
<path fill-rule="evenodd" clip-rule="evenodd" d="M65.9444 671.528C65.9444 672.893 64.8375 674 63.4722 674C62.1069 674 61 672.893 61 671.528C61 670.162 62.1069 669.056 63.4722 669.056C64.8375 669.056 65.9444 670.162 65.9444 671.528" fill="white"/>
<path fill-rule="evenodd" clip-rule="evenodd" d="M90.6666 671.528C90.6666 672.893 89.5597 674 88.1944 674C86.8291 674 85.7222 672.893 85.7222 671.528C85.7222 670.162 86.8291 669.056 88.1944 669.056C89.5597 669.056 90.6666 670.162 90.6666 671.528" fill="white"/>
<path fill-rule="evenodd" clip-rule="evenodd" d="M115.389 671.528C115.389 672.893 114.282 674 112.917 674C111.551 674 110.444 672.893 110.444 671.528C110.444 670.162 111.551 669.056 112.917 669.056C114.282 669.056 115.389 670.162 115.389 671.528" fill="white"/>
<path fill-rule="evenodd" clip-rule="evenodd" d="M140.111 671.528C140.111 672.893 139.004 674 137.639 674C136.273 674 135.167 672.893 135.167 671.528C135.167 670.162 136.273 669.056 137.639 669.056C139.004 669.056 140.111 670.162 140.111 671.528" fill="white"/>
<path fill-rule="evenodd" clip-rule="evenodd" d="M164.833 671.528C164.833 672.893 163.726 674 162.361 674C160.996 674 159.889 672.893 159.889 671.528C159.889 670.162 160.996 669.056 162.361 669.056C163.726 669.056 164.833 670.162 164.833 671.528" fill="white"/>
<path fill-rule="evenodd" clip-rule="evenodd" d="M189.556 671.528C189.556 672.893 188.449 674 187.084 674C185.718 674 184.611 672.893 184.611 671.528C184.611 670.162 185.718 669.056 187.084 669.056C188.449 669.056 189.556 670.162 189.556 671.528" fill="white"/>
<path fill-rule="evenodd" clip-rule="evenodd" d="M214.278 671.528C214.278 672.893 213.171 674 211.806 674C210.44 674 209.333 672.893 209.333 671.528C209.333 670.162 210.44 669.056 211.806 669.056C213.171 669.056 214.278 670.162 214.278 671.528" fill="white"/>
<path fill-rule="evenodd" clip-rule="evenodd" d="M239 671.528C239 672.893 237.893 674 236.528 674C235.163 674 234.056 672.893 234.056 671.528C234.056 670.162 235.163 669.056 236.528 669.056C237.893 669.056 239 670.162 239 671.528" fill="white"/>
<path fill-rule="evenodd" clip-rule="evenodd" d="M1020.94 1256.47C1020.94 1257.84 1019.84 1258.94 1018.47 1258.94C1017.11 1258.94 1016 1257.84 1016 1256.47C1016 1255.11 1017.11 1254 1018.47 1254C1019.84 1254 1020.94 1255.11 1020.94 1256.47" fill="#3B43F2"/>
<path fill-rule="evenodd" clip-rule="evenodd" d="M1045.67 1256.47C1045.67 1257.84 1044.56 1258.94 1043.19 1258.94C1041.83 1258.94 1040.72 1257.84 1040.72 1256.47C1040.72 1255.11 1041.83 1254 1043.19 1254C1044.56 1254 1045.67 1255.11 1045.67 1256.47" fill="#3B43F2"/>
<path fill-rule="evenodd" clip-rule="evenodd" d="M1070.39 1256.47C1070.39 1257.84 1069.28 1258.94 1067.92 1258.94C1066.55 1258.94 1065.44 1257.84 1065.44 1256.47C1065.44 1255.11 1066.55 1254 1067.92 1254C1069.28 1254 1070.39 1255.11 1070.39 1256.47" fill="#3B43F2"/>
<path fill-rule="evenodd" clip-rule="evenodd" d="M1095.11 1256.47C1095.11 1257.84 1094 1258.94 1092.64 1258.94C1091.27 1258.94 1090.17 1257.84 1090.17 1256.47C1090.17 1255.11 1091.27 1254 1092.64 1254C1094 1254 1095.11 1255.11 1095.11 1256.47" fill="#3B43F2"/>
<path fill-rule="evenodd" clip-rule="evenodd" d="M1119.83 1256.47C1119.83 1257.84 1118.73 1258.94 1117.36 1258.94C1116 1258.94 1114.89 1257.84 1114.89 1256.47C1114.89 1255.11 1116 1254 1117.36 1254C1118.73 1254 1119.83 1255.11 1119.83 1256.47" fill="#3B43F2"/>
<path fill-rule="evenodd" clip-rule="evenodd" d="M1144.56 1256.47C1144.56 1257.84 1143.45 1258.94 1142.08 1258.94C1140.72 1258.94 1139.61 1257.84 1139.61 1256.47C1139.61 1255.11 1140.72 1254 1142.08 1254C1143.45 1254 1144.56 1255.11 1144.56 1256.47" fill="#3B43F2"/>
<path fill-rule="evenodd" clip-rule="evenodd" d="M1169.28 1256.47C1169.28 1257.84 1168.17 1258.94 1166.81 1258.94C1165.44 1258.94 1164.33 1257.84 1164.33 1256.47C1164.33 1255.11 1165.44 1254 1166.81 1254C1168.17 1254 1169.28 1255.11 1169.28 1256.47" fill="#3B43F2"/>
<path fill-rule="evenodd" clip-rule="evenodd" d="M1194 1256.47C1194 1257.84 1192.89 1258.94 1191.53 1258.94C1190.16 1258.94 1189.06 1257.84 1189.06 1256.47C1189.06 1255.11 1190.16 1254 1191.53 1254C1192.89 1254 1194 1255.11 1194 1256.47" fill="#3B43F2"/>
<path fill-rule="evenodd" clip-rule="evenodd" d="M1020.94 1281.19C1020.94 1282.56 1019.84 1283.67 1018.47 1283.67C1017.11 1283.67 1016 1282.56 1016 1281.19C1016 1279.83 1017.11 1278.72 1018.47 1278.72C1019.84 1278.72 1020.94 1279.83 1020.94 1281.19" fill="#3B43F2"/>
<path fill-rule="evenodd" clip-rule="evenodd" d="M1045.67 1281.19C1045.67 1282.56 1044.56 1283.67 1043.19 1283.67C1041.83 1283.67 1040.72 1282.56 1040.72 1281.19C1040.72 1279.83 1041.83 1278.72 1043.19 1278.72C1044.56 1278.72 1045.67 1279.83 1045.67 1281.19" fill="#3B43F2"/>
<path fill-rule="evenodd" clip-rule="evenodd" d="M1070.39 1281.19C1070.39 1282.56 1069.28 1283.67 1067.92 1283.67C1066.55 1283.67 1065.44 1282.56 1065.44 1281.19C1065.44 1279.83 1066.55 1278.72 1067.92 1278.72C1069.28 1278.72 1070.39 1279.83 1070.39 1281.19" fill="#3B43F2"/>
<path fill-rule="evenodd" clip-rule="evenodd" d="M1095.11 1281.19C1095.11 1282.56 1094 1283.67 1092.64 1283.67C1091.27 1283.67 1090.17 1282.56 1090.17 1281.19C1090.17 1279.83 1091.27 1278.72 1092.64 1278.72C1094 1278.72 1095.11 1279.83 1095.11 1281.19" fill="#3B43F2"/>
<path fill-rule="evenodd" clip-rule="evenodd" d="M1119.83 1281.19C1119.83 1282.56 1118.73 1283.67 1117.36 1283.67C1116 1283.67 1114.89 1282.56 1114.89 1281.19C1114.89 1279.83 1116 1278.72 1117.36 1278.72C1118.73 1278.72 1119.83 1279.83 1119.83 1281.19" fill="#3B43F2"/>
<path fill-rule="evenodd" clip-rule="evenodd" d="M1144.56 1281.19C1144.56 1282.56 1143.45 1283.67 1142.08 1283.67C1140.72 1283.67 1139.61 1282.56 1139.61 1281.19C1139.61 1279.83 1140.72 1278.72 1142.08 1278.72C1143.45 1278.72 1144.56 1279.83 1144.56 1281.19" fill="#3B43F2"/>
<path fill-rule="evenodd" clip-rule="evenodd" d="M1169.28 1281.19C1169.28 1282.56 1168.17 1283.67 1166.81 1283.67C1165.44 1283.67 1164.33 1282.56 1164.33 1281.19C1164.33 1279.83 1165.44 1278.72 1166.81 1278.72C1168.17 1278.72 1169.28 1279.83 1169.28 1281.19" fill="#3B43F2"/>
<path fill-rule="evenodd" clip-rule="evenodd" d="M1194 1281.19C1194 1282.56 1192.89 1283.67 1191.53 1283.67C1190.16 1283.67 1189.06 1282.56 1189.06 1281.19C1189.06 1279.83 1190.16 1278.72 1191.53 1278.72C1192.89 1278.72 1194 1279.83 1194 1281.19" fill="#3B43F2"/>
<path fill-rule="evenodd" clip-rule="evenodd" d="M1020.94 1305.92C1020.94 1307.28 1019.84 1308.39 1018.47 1308.39C1017.11 1308.39 1016 1307.28 1016 1305.92C1016 1304.55 1017.11 1303.44 1018.47 1303.44C1019.84 1303.44 1020.94 1304.55 1020.94 1305.92" fill="#3B43F2"/>
<path fill-rule="evenodd" clip-rule="evenodd" d="M1045.67 1305.92C1045.67 1307.28 1044.56 1308.39 1043.19 1308.39C1041.83 1308.39 1040.72 1307.28 1040.72 1305.92C1040.72 1304.55 1041.83 1303.44 1043.19 1303.44C1044.56 1303.44 1045.67 1304.55 1045.67 1305.92" fill="#3B43F2"/>
<path fill-rule="evenodd" clip-rule="evenodd" d="M1070.39 1305.92C1070.39 1307.28 1069.28 1308.39 1067.92 1308.39C1066.55 1308.39 1065.44 1307.28 1065.44 1305.92C1065.44 1304.55 1066.55 1303.44 1067.92 1303.44C1069.28 1303.44 1070.39 1304.55 1070.39 1305.92" fill="#3B43F2"/>
<path fill-rule="evenodd" clip-rule="evenodd" d="M1095.11 1305.92C1095.11 1307.28 1094 1308.39 1092.64 1308.39C1091.27 1308.39 1090.17 1307.28 1090.17 1305.92C1090.17 1304.55 1091.27 1303.44 1092.64 1303.44C1094 1303.44 1095.11 1304.55 1095.11 1305.92" fill="#3B43F2"/>
<path fill-rule="evenodd" clip-rule="evenodd" d="M1119.83 1305.92C1119.83 1307.28 1118.73 1308.39 1117.36 1308.39C1116 1308.39 1114.89 1307.28 1114.89 1305.92C1114.89 1304.55 1116 1303.44 1117.36 1303.44C1118.73 1303.44 1119.83 1304.55 1119.83 1305.92" fill="#3B43F2"/>
<path fill-rule="evenodd" clip-rule="evenodd" d="M1144.56 1305.92C1144.56 1307.28 1143.45 1308.39 1142.08 1308.39C1140.72 1308.39 1139.61 1307.28 1139.61 1305.92C1139.61 1304.55 1140.72 1303.44 1142.08 1303.44C1143.45 1303.44 1144.56 1304.55 1144.56 1305.92" fill="#3B43F2"/>
<path fill-rule="evenodd" clip-rule="evenodd" d="M1169.28 1305.92C1169.28 1307.28 1168.17 1308.39 1166.81 1308.39C1165.44 1308.39 1164.33 1307.28 1164.33 1305.92C1164.33 1304.55 1165.44 1303.44 1166.81 1303.44C1168.17 1303.44 1169.28 1304.55 1169.28 1305.92" fill="#3B43F2"/>
<path fill-rule="evenodd" clip-rule="evenodd" d="M1194 1305.92C1194 1307.28 1192.89 1308.39 1191.53 1308.39C1190.16 1308.39 1189.06 1307.28 1189.06 1305.92C1189.06 1304.55 1190.16 1303.44 1191.53 1303.44C1192.89 1303.44 1194 1304.55 1194 1305.92" fill="#3B43F2"/>
<path fill-rule="evenodd" clip-rule="evenodd" d="M1020.94 1330.64C1020.94 1332 1019.84 1333.11 1018.47 1333.11C1017.11 1333.11 1016 1332 1016 1330.64C1016 1329.27 1017.11 1328.17 1018.47 1328.17C1019.84 1328.17 1020.94 1329.27 1020.94 1330.64" fill="#3B43F2"/>
<path fill-rule="evenodd" clip-rule="evenodd" d="M1045.67 1330.64C1045.67 1332 1044.56 1333.11 1043.19 1333.11C1041.83 1333.11 1040.72 1332 1040.72 1330.64C1040.72 1329.27 1041.83 1328.17 1043.19 1328.17C1044.56 1328.17 1045.67 1329.27 1045.67 1330.64" fill="#3B43F2"/>
<path fill-rule="evenodd" clip-rule="evenodd" d="M1070.39 1330.64C1070.39 1332 1069.28 1333.11 1067.92 1333.11C1066.55 1333.11 1065.44 1332 1065.44 1330.64C1065.44 1329.27 1066.55 1328.17 1067.92 1328.17C1069.28 1328.17 1070.39 1329.27 1070.39 1330.64" fill="#3B43F2"/>
<path fill-rule="evenodd" clip-rule="evenodd" d="M1095.11 1330.64C1095.11 1332 1094 1333.11 1092.64 1333.11C1091.27 1333.11 1090.17 1332 1090.17 1330.64C1090.17 1329.27 1091.27 1328.17 1092.64 1328.17C1094 1328.17 1095.11 1329.27 1095.11 1330.64" fill="#3B43F2"/>
<path fill-rule="evenodd" clip-rule="evenodd" d="M1119.83 1330.64C1119.83 1332 1118.73 1333.11 1117.36 1333.11C1116 1333.11 1114.89 1332 1114.89 1330.64C1114.89 1329.27 1116 1328.17 1117.36 1328.17C1118.73 1328.17 1119.83 1329.27 1119.83 1330.64" fill="#3B43F2"/>
<path fill-rule="evenodd" clip-rule="evenodd" d="M1144.56 1330.64C1144.56 1332 1143.45 1333.11 1142.08 1333.11C1140.72 1333.11 1139.61 1332 1139.61 1330.64C1139.61 1329.27 1140.72 1328.17 1142.08 1328.17C1143.45 1328.17 1144.56 1329.27 1144.56 1330.64" fill="#3B43F2"/>
<path fill-rule="evenodd" clip-rule="evenodd" d="M1169.28 1330.64C1169.28 1332 1168.17 1333.11 1166.81 1333.11C1165.44 1333.11 1164.33 1332 1164.33 1330.64C1164.33 1329.27 1165.44 1328.17 1166.81 1328.17C1168.17 1328.17 1169.28 1329.27 1169.28 1330.64" fill="#3B43F2"/>
<path fill-rule="evenodd" clip-rule="evenodd" d="M1194 1330.64C1194 1332 1192.89 1333.11 1191.53 1333.11C1190.16 1333.11 1189.06 1332 1189.06 1330.64C1189.06 1329.27 1190.16 1328.17 1191.53 1328.17C1192.89 1328.17 1194 1329.27 1194 1330.64" fill="#3B43F2"/>
<path fill-rule="evenodd" clip-rule="evenodd" d="M1020.94 1355.36C1020.94 1356.73 1019.84 1357.83 1018.47 1357.83C1017.11 1357.83 1016 1356.73 1016 1355.36C1016 1354 1017.11 1352.89 1018.47 1352.89C1019.84 1352.89 1020.94 1354 1020.94 1355.36" fill="#3B43F2"/>
<path fill-rule="evenodd" clip-rule="evenodd" d="M1045.67 1355.36C1045.67 1356.73 1044.56 1357.83 1043.19 1357.83C1041.83 1357.83 1040.72 1356.73 1040.72 1355.36C1040.72 1354 1041.83 1352.89 1043.19 1352.89C1044.56 1352.89 1045.67 1354 1045.67 1355.36" fill="#3B43F2"/>
<path fill-rule="evenodd" clip-rule="evenodd" d="M1070.39 1355.36C1070.39 1356.73 1069.28 1357.83 1067.92 1357.83C1066.55 1357.83 1065.44 1356.73 1065.44 1355.36C1065.44 1354 1066.55 1352.89 1067.92 1352.89C1069.28 1352.89 1070.39 1354 1070.39 1355.36" fill="#3B43F2"/>
<path fill-rule="evenodd" clip-rule="evenodd" d="M1095.11 1355.36C1095.11 1356.73 1094 1357.83 1092.64 1357.83C1091.27 1357.83 1090.17 1356.73 1090.17 1355.36C1090.17 1354 1091.27 1352.89 1092.64 1352.89C1094 1352.89 1095.11 1354 1095.11 1355.36" fill="#3B43F2"/>
<path fill-rule="evenodd" clip-rule="evenodd" d="M1119.83 1355.36C1119.83 1356.73 1118.73 1357.83 1117.36 1357.83C1116 1357.83 1114.89 1356.73 1114.89 1355.36C1114.89 1354 1116 1352.89 1117.36 1352.89C1118.73 1352.89 1119.83 1354 1119.83 1355.36" fill="#3B43F2"/>
<path fill-rule="evenodd" clip-rule="evenodd" d="M1144.56 1355.36C1144.56 1356.73 1143.45 1357.83 1142.08 1357.83C1140.72 1357.83 1139.61 1356.73 1139.61 1355.36C1139.61 1354 1140.72 1352.89 1142.08 1352.89C1143.45 1352.89 1144.56 1354 1144.56 1355.36" fill="#3B43F2"/>
<path fill-rule="evenodd" clip-rule="evenodd" d="M1169.28 1355.36C1169.28 1356.73 1168.17 1357.83 1166.81 1357.83C1165.44 1357.83 1164.33 1356.73 1164.33 1355.36C1164.33 1354 1165.44 1352.89 1166.81 1352.89C1168.17 1352.89 1169.28 1354 1169.28 1355.36" fill="#3B43F2"/>
<path fill-rule="evenodd" clip-rule="evenodd" d="M1194 1355.36C1194 1356.73 1192.89 1357.83 1191.53 1357.83C1190.16 1357.83 1189.06 1356.73 1189.06 1355.36C1189.06 1354 1190.16 1352.89 1191.53 1352.89C1192.89 1352.89 1194 1354 1194 1355.36" fill="#3B43F2"/>
<path fill-rule="evenodd" clip-rule="evenodd" d="M1020.94 1380.08C1020.94 1381.45 1019.84 1382.56 1018.47 1382.56C1017.11 1382.56 1016 1381.45 1016 1380.08C1016 1378.72 1017.11 1377.61 1018.47 1377.61C1019.84 1377.61 1020.94 1378.72 1020.94 1380.08" fill="#3B43F2"/>
<path fill-rule="evenodd" clip-rule="evenodd" d="M1045.67 1380.08C1045.67 1381.45 1044.56 1382.56 1043.19 1382.56C1041.83 1382.56 1040.72 1381.45 1040.72 1380.08C1040.72 1378.72 1041.83 1377.61 1043.19 1377.61C1044.56 1377.61 1045.67 1378.72 1045.67 1380.08" fill="#3B43F2"/>
<path fill-rule="evenodd" clip-rule="evenodd" d="M1070.39 1380.08C1070.39 1381.45 1069.28 1382.56 1067.92 1382.56C1066.55 1382.56 1065.44 1381.45 1065.44 1380.08C1065.44 1378.72 1066.55 1377.61 1067.92 1377.61C1069.28 1377.61 1070.39 1378.72 1070.39 1380.08" fill="#3B43F2"/>
<path fill-rule="evenodd" clip-rule="evenodd" d="M1095.11 1380.08C1095.11 1381.45 1094 1382.56 1092.64 1382.56C1091.27 1382.56 1090.17 1381.45 1090.17 1380.08C1090.17 1378.72 1091.27 1377.61 1092.64 1377.61C1094 1377.61 1095.11 1378.72 1095.11 1380.08" fill="#3B43F2"/>
<path fill-rule="evenodd" clip-rule="evenodd" d="M1119.83 1380.08C1119.83 1381.45 1118.73 1382.56 1117.36 1382.56C1116 1382.56 1114.89 1381.45 1114.89 1380.08C1114.89 1378.72 1116 1377.61 1117.36 1377.61C1118.73 1377.61 1119.83 1378.72 1119.83 1380.08" fill="#3B43F2"/>
<path fill-rule="evenodd" clip-rule="evenodd" d="M1144.56 1380.08C1144.56 1381.45 1143.45 1382.56 1142.08 1382.56C1140.72 1382.56 1139.61 1381.45 1139.61 1380.08C1139.61 1378.72 1140.72 1377.61 1142.08 1377.61C1143.45 1377.61 1144.56 1378.72 1144.56 1380.08" fill="#3B43F2"/>
<path fill-rule="evenodd" clip-rule="evenodd" d="M1169.28 1380.08C1169.28 1381.45 1168.17 1382.56 1166.81 1382.56C1165.44 1382.56 1164.33 1381.45 1164.33 1380.08C1164.33 1378.72 1165.44 1377.61 1166.81 1377.61C1168.17 1377.61 1169.28 1378.72 1169.28 1380.08" fill="#3B43F2"/>
<path fill-rule="evenodd" clip-rule="evenodd" d="M1194 1380.08C1194 1381.45 1192.89 1382.56 1191.53 1382.56C1190.16 1382.56 1189.06 1381.45 1189.06 1380.08C1189.06 1378.72 1190.16 1377.61 1191.53 1377.61C1192.89 1377.61 1194 1378.72 1194 1380.08" fill="#3B43F2"/>
<path fill-rule="evenodd" clip-rule="evenodd" d="M1020.94 1404.81C1020.94 1406.17 1019.84 1407.28 1018.47 1407.28C1017.11 1407.28 1016 1406.17 1016 1404.81C1016 1403.44 1017.11 1402.33 1018.47 1402.33C1019.84 1402.33 1020.94 1403.44 1020.94 1404.81" fill="#3B43F2"/>
<path fill-rule="evenodd" clip-rule="evenodd" d="M1045.67 1404.81C1045.67 1406.17 1044.56 1407.28 1043.19 1407.28C1041.83 1407.28 1040.72 1406.17 1040.72 1404.81C1040.72 1403.44 1041.83 1402.33 1043.19 1402.33C1044.56 1402.33 1045.67 1403.44 1045.67 1404.81" fill="#3B43F2"/>
<path fill-rule="evenodd" clip-rule="evenodd" d="M1070.39 1404.81C1070.39 1406.17 1069.28 1407.28 1067.92 1407.28C1066.55 1407.28 1065.44 1406.17 1065.44 1404.81C1065.44 1403.44 1066.55 1402.33 1067.92 1402.33C1069.28 1402.33 1070.39 1403.44 1070.39 1404.81" fill="#3B43F2"/>
<path fill-rule="evenodd" clip-rule="evenodd" d="M1095.11 1404.81C1095.11 1406.17 1094 1407.28 1092.64 1407.28C1091.27 1407.28 1090.17 1406.17 1090.17 1404.81C1090.17 1403.44 1091.27 1402.33 1092.64 1402.33C1094 1402.33 1095.11 1403.44 1095.11 1404.81" fill="#3B43F2"/>
<path fill-rule="evenodd" clip-rule="evenodd" d="M1119.83 1404.81C1119.83 1406.17 1118.73 1407.28 1117.36 1407.28C1116 1407.28 1114.89 1406.17 1114.89 1404.81C1114.89 1403.44 1116 1402.33 1117.36 1402.33C1118.73 1402.33 1119.83 1403.44 1119.83 1404.81" fill="#3B43F2"/>
<path fill-rule="evenodd" clip-rule="evenodd" d="M1144.56 1404.81C1144.56 1406.17 1143.45 1407.28 1142.08 1407.28C1140.72 1407.28 1139.61 1406.17 1139.61 1404.81C1139.61 1403.44 1140.72 1402.33 1142.08 1402.33C1143.45 1402.33 1144.56 1403.44 1144.56 1404.81" fill="#3B43F2"/>
<path fill-rule="evenodd" clip-rule="evenodd" d="M1169.28 1404.81C1169.28 1406.17 1168.17 1407.28 1166.81 1407.28C1165.44 1407.28 1164.33 1406.17 1164.33 1404.81C1164.33 1403.44 1165.44 1402.33 1166.81 1402.33C1168.17 1402.33 1169.28 1403.44 1169.28 1404.81" fill="#3B43F2"/>
<path fill-rule="evenodd" clip-rule="evenodd" d="M1194 1404.81C1194 1406.17 1192.89 1407.28 1191.53 1407.28C1190.16 1407.28 1189.06 1406.17 1189.06 1404.81C1189.06 1403.44 1190.16 1402.33 1191.53 1402.33C1192.89 1402.33 1194 1403.44 1194 1404.81" fill="#3B43F2"/>
<path fill-rule="evenodd" clip-rule="evenodd" d="M1020.94 1429.53C1020.94 1430.89 1019.84 1432 1018.47 1432C1017.11 1432 1016 1430.89 1016 1429.53C1016 1428.16 1017.11 1427.06 1018.47 1427.06C1019.84 1427.06 1020.94 1428.16 1020.94 1429.53" fill="#3B43F2"/>
<path fill-rule="evenodd" clip-rule="evenodd" d="M1045.67 1429.53C1045.67 1430.89 1044.56 1432 1043.19 1432C1041.83 1432 1040.72 1430.89 1040.72 1429.53C1040.72 1428.16 1041.83 1427.06 1043.19 1427.06C1044.56 1427.06 1045.67 1428.16 1045.67 1429.53" fill="#3B43F2"/>
<path fill-rule="evenodd" clip-rule="evenodd" d="M1070.39 1429.53C1070.39 1430.89 1069.28 1432 1067.92 1432C1066.55 1432 1065.44 1430.89 1065.44 1429.53C1065.44 1428.16 1066.55 1427.06 1067.92 1427.06C1069.28 1427.06 1070.39 1428.16 1070.39 1429.53" fill="#3B43F2"/>
<path fill-rule="evenodd" clip-rule="evenodd" d="M1095.11 1429.53C1095.11 1430.89 1094 1432 1092.64 1432C1091.27 1432 1090.17 1430.89 1090.17 1429.53C1090.17 1428.16 1091.27 1427.06 1092.64 1427.06C1094 1427.06 1095.11 1428.16 1095.11 1429.53" fill="#3B43F2"/>
<path fill-rule="evenodd" clip-rule="evenodd" d="M1119.83 1429.53C1119.83 1430.89 1118.73 1432 1117.36 1432C1116 1432 1114.89 1430.89 1114.89 1429.53C1114.89 1428.16 1116 1427.06 1117.36 1427.06C1118.73 1427.06 1119.83 1428.16 1119.83 1429.53" fill="#3B43F2"/>
<path fill-rule="evenodd" clip-rule="evenodd" d="M1144.56 1429.53C1144.56 1430.89 1143.45 1432 1142.08 1432C1140.72 1432 1139.61 1430.89 1139.61 1429.53C1139.61 1428.16 1140.72 1427.06 1142.08 1427.06C1143.45 1427.06 1144.56 1428.16 1144.56 1429.53" fill="#3B43F2"/>
<path fill-rule="evenodd" clip-rule="evenodd" d="M1169.28 1429.53C1169.28 1430.89 1168.17 1432 1166.81 1432C1165.44 1432 1164.33 1430.89 1164.33 1429.53C1164.33 1428.16 1165.44 1427.06 1166.81 1427.06C1168.17 1427.06 1169.28 1428.16 1169.28 1429.53" fill="#3B43F2"/>
<path fill-rule="evenodd" clip-rule="evenodd" d="M1194 1429.53C1194 1430.89 1192.89 1432 1191.53 1432C1190.16 1432 1189.06 1430.89 1189.06 1429.53C1189.06 1428.16 1190.16 1427.06 1191.53 1427.06C1192.89 1427.06 1194 1428.16 1194 1429.53" fill="#3B43F2"/>
<g filter="url(#filter0_d)">
<circle cx="498" cy="638" r="12" stroke="#3B43F2" stroke-width="4"/>
</g>
<rect x="110" y="274.858" width="20" height="20" transform="rotate(45 110 274.858)" stroke="#3B43F2" stroke-width="4"/>
<path fill-rule="evenodd" clip-rule="evenodd" d="M69 182.142C73.411 182.142 77 185.731 77 190.142H81C81 183.525 75.617 178.142 69 178.142C62.383 178.142 57 183.525 57 190.142H61C61 185.731 64.589 182.142 69 182.142" fill="#3B43F2"/>
<path fill-rule="evenodd" clip-rule="evenodd" d="M190 85C183.383 85 178 90.383 178 97H182C182 92.589 185.589 89 190 89V85Z" fill="#3B43F2"/>
</g>
<defs>
<filter id="filter0_d" x="444" y="546" width="188" height="188" filterUnits="userSpaceOnUse" color-interpolation-filters="sRGB">
<feFlood flood-opacity="0" result="BackgroundImageFix"/>
<feColorMatrix in="SourceAlpha" type="matrix" values="0 0 0 0 0 0 0 0 0 0 0 0 0 0 0 0 0 0 127 0"/>
<feOffset dx="40" dy="2"/>
<feGaussianBlur stdDeviation="40"/>
<feColorMatrix type="matrix" values="0 0 0 0 0 0 0 0 0 0 0 0 0 0 0 0 0 0 0.5 0"/>
<feBlend mode="normal" in2="BackgroundImageFix" result="effect1_dropShadow"/>
<feBlend mode="normal" in="SourceGraphic" in2="effect1_dropShadow" result="shape"/>
</filter>
</defs>
</svg>
