<svg width="1280" height="1092" viewBox="0 0 1280 1092" fill="none" xmlns="http://www.w3.org/2000/svg">
<rect x="769.055" y="580" width="724" height="724" rx="100" transform="rotate(-45 769.055 580)" fill="#3138D1"/>
<circle cx="117.5" cy="263.5" r="263.5" fill="#3B43F2"/>
<g filter="url(#filter0_d)">
<circle cx="1031" cy="702" r="12" stroke="white" stroke-width="4"/>
</g>
<rect x="150.945" y="746.858" width="20" height="20" transform="rotate(45 150.945 746.858)" stroke="#3B43F2" stroke-width="4"/>
<path fill-rule="evenodd" clip-rule="evenodd" d="M109.945 654.142C114.356 654.142 117.945 657.731 117.945 662.142H121.945C121.945 655.525 116.562 650.142 109.945 650.142C103.328 650.142 97.9453 655.525 97.9453 662.142H101.945C101.945 657.731 105.534 654.142 109.945 654.142Z" fill="#3B43F2"/>
<path fill-rule="evenodd" clip-rule="evenodd" d="M1127 589C1120.38 589 1115 594.383 1115 601H1119C1119 596.589 1122.59 593 1127 593V589Z" fill="white"/>
<path fill-rule="evenodd" clip-rule="evenodd" d="M838.405 266.75C838.405 268.269 837.173 269.5 835.655 269.5C834.136 269.5 832.905 268.269 832.905 266.75C832.905 265.231 834.136 264 835.655 264C837.173 264 838.405 265.231 838.405 266.75Z" fill="#3B43F2"/>
<path fill-rule="evenodd" clip-rule="evenodd" d="M865.905 266.75C865.905 268.269 864.673 269.5 863.155 269.5C861.636 269.5 860.405 268.269 860.405 266.75C860.405 265.231 861.636 264 863.155 264C864.673 264 865.905 265.231 865.905 266.75Z" fill="#3B43F2"/>
<path fill-rule="evenodd" clip-rule="evenodd" d="M893.405 266.75C893.405 268.269 892.173 269.5 890.655 269.5C889.136 269.5 887.905 268.269 887.905 266.75C887.905 265.231 889.136 264 890.655 264C892.173 264 893.405 265.231 893.405 266.75Z" fill="#3B43F2"/>
<path fill-rule="evenodd" clip-rule="evenodd" d="M920.905 266.75C920.905 268.269 919.673 269.5 918.155 269.5C916.636 269.5 915.405 268.269 915.405 266.75C915.405 265.231 916.636 264 918.155 264C919.673 264 920.905 265.231 920.905 266.75Z" fill="#3B43F2"/>
<path fill-rule="evenodd" clip-rule="evenodd" d="M948.405 266.75C948.405 268.269 947.173 269.5 945.655 269.5C944.136 269.5 942.905 268.269 942.905 266.75C942.905 265.231 944.136 264 945.655 264C947.173 264 948.405 265.231 948.405 266.75Z" fill="#3B43F2"/>
<path fill-rule="evenodd" clip-rule="evenodd" d="M975.905 266.75C975.905 268.269 974.673 269.5 973.155 269.5C971.636 269.5 970.405 268.269 970.405 266.75C970.405 265.231 971.636 264 973.155 264C974.673 264 975.905 265.231 975.905 266.75Z" fill="#3B43F2"/>
<path fill-rule="evenodd" clip-rule="evenodd" d="M1003.4 266.75C1003.4 268.269 1002.17 269.5 1000.65 269.5C999.136 269.5 997.905 268.269 997.905 266.75C997.905 265.231 999.136 264 1000.65 264C1002.17 264 1003.4 265.231 1003.4 266.75Z" fill="#3B43F2"/>
<path fill-rule="evenodd" clip-rule="evenodd" d="M1030.9 266.75C1030.9 268.269 1029.67 269.5 1028.15 269.5C1026.64 269.5 1025.4 268.269 1025.4 266.75C1025.4 265.231 1026.64 264 1028.15 264C1029.67 264 1030.9 265.231 1030.9 266.75Z" fill="#3B43F2"/>
<path fill-rule="evenodd" clip-rule="evenodd" d="M838.405 294.25C838.405 295.769 837.173 297 835.655 297C834.136 297 832.905 295.769 832.905 294.25C832.905 292.731 834.136 291.5 835.655 291.5C837.173 291.5 838.405 292.731 838.405 294.25Z" fill="#3B43F2"/>
<path fill-rule="evenodd" clip-rule="evenodd" d="M865.905 294.25C865.905 295.769 864.673 297 863.155 297C861.636 297 860.405 295.769 860.405 294.25C860.405 292.731 861.636 291.5 863.155 291.5C864.673 291.5 865.905 292.731 865.905 294.25Z" fill="#3B43F2"/>
<path fill-rule="evenodd" clip-rule="evenodd" d="M893.405 294.25C893.405 295.769 892.173 297 890.655 297C889.136 297 887.905 295.769 887.905 294.25C887.905 292.731 889.136 291.5 890.655 291.5C892.173 291.5 893.405 292.731 893.405 294.25Z" fill="#3B43F2"/>
<path fill-rule="evenodd" clip-rule="evenodd" d="M920.905 294.25C920.905 295.769 919.673 297 918.155 297C916.636 297 915.405 295.769 915.405 294.25C915.405 292.731 916.636 291.5 918.155 291.5C919.673 291.5 920.905 292.731 920.905 294.25Z" fill="#3B43F2"/>
<path fill-rule="evenodd" clip-rule="evenodd" d="M948.405 294.25C948.405 295.769 947.173 297 945.655 297C944.136 297 942.905 295.769 942.905 294.25C942.905 292.731 944.136 291.5 945.655 291.5C947.173 291.5 948.405 292.731 948.405 294.25Z" fill="#3B43F2"/>
<path fill-rule="evenodd" clip-rule="evenodd" d="M975.905 294.25C975.905 295.769 974.673 297 973.155 297C971.636 297 970.405 295.769 970.405 294.25C970.405 292.731 971.636 291.5 973.155 291.5C974.673 291.5 975.905 292.731 975.905 294.25Z" fill="#3B43F2"/>
<path fill-rule="evenodd" clip-rule="evenodd" d="M1003.4 294.25C1003.4 295.769 1002.17 297 1000.65 297C999.136 297 997.905 295.769 997.905 294.25C997.905 292.731 999.136 291.5 1000.65 291.5C1002.17 291.5 1003.4 292.731 1003.4 294.25Z" fill="#3B43F2"/>
<path fill-rule="evenodd" clip-rule="evenodd" d="M1030.9 294.25C1030.9 295.769 1029.67 297 1028.15 297C1026.64 297 1025.4 295.769 1025.4 294.25C1025.4 292.731 1026.64 291.5 1028.15 291.5C1029.67 291.5 1030.9 292.731 1030.9 294.25Z" fill="#3B43F2"/>
<path fill-rule="evenodd" clip-rule="evenodd" d="M838.405 321.75C838.405 323.269 837.173 324.5 835.655 324.5C834.136 324.5 832.905 323.269 832.905 321.75C832.905 320.231 834.136 319 835.655 319C837.173 319 838.405 320.231 838.405 321.75Z" fill="#3B43F2"/>
<path fill-rule="evenodd" clip-rule="evenodd" d="M865.905 321.75C865.905 323.269 864.673 324.5 863.155 324.5C861.636 324.5 860.405 323.269 860.405 321.75C860.405 320.231 861.636 319 863.155 319C864.673 319 865.905 320.231 865.905 321.75Z" fill="#3B43F2"/>
<path fill-rule="evenodd" clip-rule="evenodd" d="M893.405 321.75C893.405 323.269 892.173 324.5 890.655 324.5C889.136 324.5 887.905 323.269 887.905 321.75C887.905 320.231 889.136 319 890.655 319C892.173 319 893.405 320.231 893.405 321.75Z" fill="#3B43F2"/>
<path fill-rule="evenodd" clip-rule="evenodd" d="M920.905 321.75C920.905 323.269 919.673 324.5 918.155 324.5C916.636 324.5 915.405 323.269 915.405 321.75C915.405 320.231 916.636 319 918.155 319C919.673 319 920.905 320.231 920.905 321.75Z" fill="#3B43F2"/>
<path fill-rule="evenodd" clip-rule="evenodd" d="M948.405 321.75C948.405 323.269 947.173 324.5 945.655 324.5C944.136 324.5 942.905 323.269 942.905 321.75C942.905 320.231 944.136 319 945.655 319C947.173 319 948.405 320.231 948.405 321.75Z" fill="#3B43F2"/>
<path fill-rule="evenodd" clip-rule="evenodd" d="M975.905 321.75C975.905 323.269 974.673 324.5 973.155 324.5C971.636 324.5 970.405 323.269 970.405 321.75C970.405 320.231 971.636 319 973.155 319C974.673 319 975.905 320.231 975.905 321.75Z" fill="#3B43F2"/>
<path fill-rule="evenodd" clip-rule="evenodd" d="M1003.4 321.75C1003.4 323.269 1002.17 324.5 1000.65 324.5C999.136 324.5 997.905 323.269 997.905 321.75C997.905 320.231 999.136 319 1000.65 319C1002.17 319 1003.4 320.231 1003.4 321.75Z" fill="#3B43F2"/>
<path fill-rule="evenodd" clip-rule="evenodd" d="M1030.9 321.75C1030.9 323.269 1029.67 324.5 1028.15 324.5C1026.64 324.5 1025.4 323.269 1025.4 321.75C1025.4 320.231 1026.64 319 1028.15 319C1029.67 319 1030.9 320.231 1030.9 321.75Z" fill="#3B43F2"/>
<path fill-rule="evenodd" clip-rule="evenodd" d="M838.405 349.25C838.405 350.769 837.173 352 835.655 352C834.136 352 832.905 350.769 832.905 349.25C832.905 347.731 834.136 346.5 835.655 346.5C837.173 346.5 838.405 347.731 838.405 349.25Z" fill="#3B43F2"/>
<path fill-rule="evenodd" clip-rule="evenodd" d="M865.905 349.25C865.905 350.769 864.673 352 863.155 352C861.636 352 860.405 350.769 860.405 349.25C860.405 347.731 861.636 346.5 863.155 346.5C864.673 346.5 865.905 347.731 865.905 349.25Z" fill="#3B43F2"/>
<path fill-rule="evenodd" clip-rule="evenodd" d="M893.405 349.25C893.405 350.769 892.173 352 890.655 352C889.136 352 887.905 350.769 887.905 349.25C887.905 347.731 889.136 346.5 890.655 346.5C892.173 346.5 893.405 347.731 893.405 349.25Z" fill="#3B43F2"/>
<path fill-rule="evenodd" clip-rule="evenodd" d="M920.905 349.25C920.905 350.769 919.673 352 918.155 352C916.636 352 915.405 350.769 915.405 349.25C915.405 347.731 916.636 346.5 918.155 346.5C919.673 346.5 920.905 347.731 920.905 349.25Z" fill="#3B43F2"/>
<path fill-rule="evenodd" clip-rule="evenodd" d="M948.405 349.25C948.405 350.769 947.173 352 945.655 352C944.136 352 942.905 350.769 942.905 349.25C942.905 347.731 944.136 346.5 945.655 346.5C947.173 346.5 948.405 347.731 948.405 349.25Z" fill="#3B43F2"/>
<path fill-rule="evenodd" clip-rule="evenodd" d="M975.905 349.25C975.905 350.769 974.673 352 973.155 352C971.636 352 970.405 350.769 970.405 349.25C970.405 347.731 971.636 346.5 973.155 346.5C974.673 346.5 975.905 347.731 975.905 349.25Z" fill="#3B43F2"/>
<path fill-rule="evenodd" clip-rule="evenodd" d="M1003.4 349.25C1003.4 350.769 1002.17 352 1000.65 352C999.136 352 997.905 350.769 997.905 349.25C997.905 347.731 999.136 346.5 1000.65 346.5C1002.17 346.5 1003.4 347.731 1003.4 349.25Z" fill="#3B43F2"/>
<path fill-rule="evenodd" clip-rule="evenodd" d="M1030.9 349.25C1030.9 350.769 1029.67 352 1028.15 352C1026.64 352 1025.4 350.769 1025.4 349.25C1025.4 347.731 1026.64 346.5 1028.15 346.5C1029.67 346.5 1030.9 347.731 1030.9 349.25Z" fill="#3B43F2"/>
<path fill-rule="evenodd" clip-rule="evenodd" d="M838.405 376.75C838.405 378.269 837.173 379.5 835.655 379.5C834.136 379.5 832.905 378.269 832.905 376.75C832.905 375.231 834.136 374 835.655 374C837.173 374 838.405 375.231 838.405 376.75Z" fill="#3B43F2"/>
<path fill-rule="evenodd" clip-rule="evenodd" d="M865.905 376.75C865.905 378.269 864.673 379.5 863.155 379.5C861.636 379.5 860.405 378.269 860.405 376.75C860.405 375.231 861.636 374 863.155 374C864.673 374 865.905 375.231 865.905 376.75Z" fill="#3B43F2"/>
<path fill-rule="evenodd" clip-rule="evenodd" d="M893.405 376.75C893.405 378.269 892.173 379.5 890.655 379.5C889.136 379.5 887.905 378.269 887.905 376.75C887.905 375.231 889.136 374 890.655 374C892.173 374 893.405 375.231 893.405 376.75Z" fill="#3B43F2"/>
<path fill-rule="evenodd" clip-rule="evenodd" d="M920.905 376.75C920.905 378.269 919.673 379.5 918.155 379.5C916.636 379.5 915.405 378.269 915.405 376.75C915.405 375.231 916.636 374 918.155 374C919.673 374 920.905 375.231 920.905 376.75Z" fill="#3B43F2"/>
<path fill-rule="evenodd" clip-rule="evenodd" d="M948.405 376.75C948.405 378.269 947.173 379.5 945.655 379.5C944.136 379.5 942.905 378.269 942.905 376.75C942.905 375.231 944.136 374 945.655 374C947.173 374 948.405 375.231 948.405 376.75Z" fill="#3B43F2"/>
<path fill-rule="evenodd" clip-rule="evenodd" d="M975.905 376.75C975.905 378.269 974.673 379.5 973.155 379.5C971.636 379.5 970.405 378.269 970.405 376.75C970.405 375.231 971.636 374 973.155 374C974.673 374 975.905 375.231 975.905 376.75Z" fill="#3B43F2"/>
<path fill-rule="evenodd" clip-rule="evenodd" d="M1003.4 376.75C1003.4 378.269 1002.17 379.5 1000.65 379.5C999.136 379.5 997.905 378.269 997.905 376.75C997.905 375.231 999.136 374 1000.65 374C1002.17 374 1003.4 375.231 1003.4 376.75Z" fill="#3B43F2"/>
<path fill-rule="evenodd" clip-rule="evenodd" d="M1030.9 376.75C1030.9 378.269 1029.67 379.5 1028.15 379.5C1026.64 379.5 1025.4 378.269 1025.4 376.75C1025.4 375.231 1026.64 374 1028.15 374C1029.67 374 1030.9 375.231 1030.9 376.75Z" fill="#3B43F2"/>
<path fill-rule="evenodd" clip-rule="evenodd" d="M838.405 404.25C838.405 405.769 837.173 407 835.655 407C834.136 407 832.905 405.769 832.905 404.25C832.905 402.731 834.136 401.5 835.655 401.5C837.173 401.5 838.405 402.731 838.405 404.25Z" fill="#3B43F2"/>
<path fill-rule="evenodd" clip-rule="evenodd" d="M865.905 404.25C865.905 405.769 864.673 407 863.155 407C861.636 407 860.405 405.769 860.405 404.25C860.405 402.731 861.636 401.5 863.155 401.5C864.673 401.5 865.905 402.731 865.905 404.25Z" fill="#3B43F2"/>
<path fill-rule="evenodd" clip-rule="evenodd" d="M893.405 404.25C893.405 405.769 892.173 407 890.655 407C889.136 407 887.905 405.769 887.905 404.25C887.905 402.731 889.136 401.5 890.655 401.5C892.173 401.5 893.405 402.731 893.405 404.25Z" fill="#3B43F2"/>
<path fill-rule="evenodd" clip-rule="evenodd" d="M920.905 404.25C920.905 405.769 919.673 407 918.155 407C916.636 407 915.405 405.769 915.405 404.25C915.405 402.731 916.636 401.5 918.155 401.5C919.673 401.5 920.905 402.731 920.905 404.25Z" fill="#3B43F2"/>
<path fill-rule="evenodd" clip-rule="evenodd" d="M948.405 404.25C948.405 405.769 947.173 407 945.655 407C944.136 407 942.905 405.769 942.905 404.25C942.905 402.731 944.136 401.5 945.655 401.5C947.173 401.5 948.405 402.731 948.405 404.25Z" fill="#3B43F2"/>
<path fill-rule="evenodd" clip-rule="evenodd" d="M975.905 404.25C975.905 405.769 974.673 407 973.155 407C971.636 407 970.405 405.769 970.405 404.25C970.405 402.731 971.636 401.5 973.155 401.5C974.673 401.5 975.905 402.731 975.905 404.25Z" fill="#3B43F2"/>
<path fill-rule="evenodd" clip-rule="evenodd" d="M1003.4 404.25C1003.4 405.769 1002.17 407 1000.65 407C999.136 407 997.905 405.769 997.905 404.25C997.905 402.731 999.136 401.5 1000.65 401.5C1002.17 401.5 1003.4 402.731 1003.4 404.25Z" fill="#3B43F2"/>
<path fill-rule="evenodd" clip-rule="evenodd" d="M1030.9 404.25C1030.9 405.769 1029.67 407 1028.15 407C1026.64 407 1025.4 405.769 1025.4 404.25C1025.4 402.731 1026.64 401.5 1028.15 401.5C1029.67 401.5 1030.9 402.731 1030.9 404.25Z" fill="#3B43F2"/>
<path fill-rule="evenodd" clip-rule="evenodd" d="M838.405 431.75C838.405 433.269 837.173 434.5 835.655 434.5C834.136 434.5 832.905 433.269 832.905 431.75C832.905 430.231 834.136 429 835.655 429C837.173 429 838.405 430.231 838.405 431.75Z" fill="#3B43F2"/>
<path fill-rule="evenodd" clip-rule="evenodd" d="M865.905 431.75C865.905 433.269 864.673 434.5 863.155 434.5C861.636 434.5 860.405 433.269 860.405 431.75C860.405 430.231 861.636 429 863.155 429C864.673 429 865.905 430.231 865.905 431.75Z" fill="#3B43F2"/>
<path fill-rule="evenodd" clip-rule="evenodd" d="M893.405 431.75C893.405 433.269 892.173 434.5 890.655 434.5C889.136 434.5 887.905 433.269 887.905 431.75C887.905 430.231 889.136 429 890.655 429C892.173 429 893.405 430.231 893.405 431.75Z" fill="#3B43F2"/>
<path fill-rule="evenodd" clip-rule="evenodd" d="M920.905 431.75C920.905 433.269 919.673 434.5 918.155 434.5C916.636 434.5 915.405 433.269 915.405 431.75C915.405 430.231 916.636 429 918.155 429C919.673 429 920.905 430.231 920.905 431.75Z" fill="#3B43F2"/>
<path fill-rule="evenodd" clip-rule="evenodd" d="M948.405 431.75C948.405 433.269 947.173 434.5 945.655 434.5C944.136 434.5 942.905 433.269 942.905 431.75C942.905 430.231 944.136 429 945.655 429C947.173 429 948.405 430.231 948.405 431.75Z" fill="#3B43F2"/>
<path fill-rule="evenodd" clip-rule="evenodd" d="M975.905 431.75C975.905 433.269 974.673 434.5 973.155 434.5C971.636 434.5 970.405 433.269 970.405 431.75C970.405 430.231 971.636 429 973.155 429C974.673 429 975.905 430.231 975.905 431.75Z" fill="#3B43F2"/>
<path fill-rule="evenodd" clip-rule="evenodd" d="M1003.4 431.75C1003.4 433.269 1002.17 434.5 1000.65 434.5C999.136 434.5 997.905 433.269 997.905 431.75C997.905 430.231 999.136 429 1000.65 429C1002.17 429 1003.4 430.231 1003.4 431.75Z" fill="#3B43F2"/>
<path fill-rule="evenodd" clip-rule="evenodd" d="M1030.9 431.75C1030.9 433.269 1029.67 434.5 1028.15 434.5C1026.64 434.5 1025.4 433.269 1025.4 431.75C1025.4 430.231 1026.64 429 1028.15 429C1029.67 429 1030.9 430.231 1030.9 431.75Z" fill="#3B43F2"/>
<path fill-rule="evenodd" clip-rule="evenodd" d="M838.405 459.25C838.405 460.769 837.173 462 835.655 462C834.136 462 832.905 460.769 832.905 459.25C832.905 457.731 834.136 456.5 835.655 456.5C837.173 456.5 838.405 457.731 838.405 459.25Z" fill="#3B43F2"/>
<path fill-rule="evenodd" clip-rule="evenodd" d="M865.905 459.25C865.905 460.769 864.673 462 863.155 462C861.636 462 860.405 460.769 860.405 459.25C860.405 457.731 861.636 456.5 863.155 456.5C864.673 456.5 865.905 457.731 865.905 459.25Z" fill="#3B43F2"/>
<path fill-rule="evenodd" clip-rule="evenodd" d="M893.405 459.25C893.405 460.769 892.173 462 890.655 462C889.136 462 887.905 460.769 887.905 459.25C887.905 457.731 889.136 456.5 890.655 456.5C892.173 456.5 893.405 457.731 893.405 459.25Z" fill="#3B43F2"/>
<path fill-rule="evenodd" clip-rule="evenodd" d="M920.905 459.25C920.905 460.769 919.673 462 918.155 462C916.636 462 915.405 460.769 915.405 459.25C915.405 457.731 916.636 456.5 918.155 456.5C919.673 456.5 920.905 457.731 920.905 459.25Z" fill="#3B43F2"/>
<path fill-rule="evenodd" clip-rule="evenodd" d="M948.405 459.25C948.405 460.769 947.173 462 945.655 462C944.136 462 942.905 460.769 942.905 459.25C942.905 457.731 944.136 456.5 945.655 456.5C947.173 456.5 948.405 457.731 948.405 459.25Z" fill="#3B43F2"/>
<path fill-rule="evenodd" clip-rule="evenodd" d="M975.905 459.25C975.905 460.769 974.673 462 973.155 462C971.636 462 970.405 460.769 970.405 459.25C970.405 457.731 971.636 456.5 973.155 456.5C974.673 456.5 975.905 457.731 975.905 459.25Z" fill="#3B43F2"/>
<path fill-rule="evenodd" clip-rule="evenodd" d="M1003.4 459.25C1003.4 460.769 1002.17 462 1000.65 462C999.136 462 997.905 460.769 997.905 459.25C997.905 457.731 999.136 456.5 1000.65 456.5C1002.17 456.5 1003.4 457.731 1003.4 459.25Z" fill="#3B43F2"/>
<path fill-rule="evenodd" clip-rule="evenodd" d="M1030.9 459.25C1030.9 460.769 1029.67 462 1028.15 462C1026.64 462 1025.4 460.769 1025.4 459.25C1025.4 457.731 1026.64 456.5 1028.15 456.5C1029.67 456.5 1030.9 457.731 1030.9 459.25Z" fill="#3B43F2"/>
<path fill-rule="evenodd" clip-rule="evenodd" d="M80.6111 66.3056C80.6111 68.131 79.131 69.6111 77.3056 69.6111C75.4801 69.6111 74 68.131 74 66.3056C74 64.4801 75.4801 63 77.3056 63C79.131 63 80.6111 64.4801 80.6111 66.3056Z" fill="white"/>
<path fill-rule="evenodd" clip-rule="evenodd" d="M113.667 66.3056C113.667 68.131 112.187 69.6111 110.361 69.6111C108.536 69.6111 107.056 68.131 107.056 66.3056C107.056 64.4801 108.536 63 110.361 63C112.187 63 113.667 64.4801 113.667 66.3056Z" fill="white"/>
<path fill-rule="evenodd" clip-rule="evenodd" d="M146.722 66.3056C146.722 68.131 145.242 69.6111 143.417 69.6111C141.591 69.6111 140.111 68.131 140.111 66.3056C140.111 64.4801 141.591 63 143.417 63C145.242 63 146.722 64.4801 146.722 66.3056Z" fill="white"/>
<path fill-rule="evenodd" clip-rule="evenodd" d="M179.778 66.3056C179.778 68.131 178.298 69.6111 176.472 69.6111C174.647 69.6111 173.167 68.131 173.167 66.3056C173.167 64.4801 174.647 63 176.472 63C178.298 63 179.778 64.4801 179.778 66.3056Z" fill="white"/>
<path fill-rule="evenodd" clip-rule="evenodd" d="M212.833 66.3056C212.833 68.131 211.353 69.6111 209.528 69.6111C207.702 69.6111 206.222 68.131 206.222 66.3056C206.222 64.4801 207.702 63 209.528 63C211.353 63 212.833 64.4801 212.833 66.3056Z" fill="white"/>
<path fill-rule="evenodd" clip-rule="evenodd" d="M245.889 66.3056C245.889 68.131 244.409 69.6111 242.583 69.6111C240.758 69.6111 239.278 68.131 239.278 66.3056C239.278 64.4801 240.758 63 242.583 63C244.409 63 245.889 64.4801 245.889 66.3056Z" fill="white"/>
<path fill-rule="evenodd" clip-rule="evenodd" d="M278.945 66.3056C278.945 68.131 277.465 69.6111 275.639 69.6111C273.814 69.6111 272.333 68.131 272.333 66.3056C272.333 64.4801 273.814 63 275.639 63C277.465 63 278.945 64.4801 278.945 66.3056Z" fill="white"/>
<path fill-rule="evenodd" clip-rule="evenodd" d="M312 66.3056C312 68.131 310.52 69.6111 308.694 69.6111C306.869 69.6111 305.389 68.131 305.389 66.3056C305.389 64.4801 306.869 63 308.694 63C310.52 63 312 64.4801 312 66.3056Z" fill="white"/>
<path fill-rule="evenodd" clip-rule="evenodd" d="M80.6111 99.3612C80.6111 101.187 79.131 102.667 77.3056 102.667C75.4801 102.667 74 101.187 74 99.3612C74 97.5357 75.4801 96.0557 77.3056 96.0557C79.131 96.0557 80.6111 97.5357 80.6111 99.3612Z" fill="white"/>
<path fill-rule="evenodd" clip-rule="evenodd" d="M113.667 99.3612C113.667 101.187 112.187 102.667 110.361 102.667C108.536 102.667 107.056 101.187 107.056 99.3612C107.056 97.5357 108.536 96.0557 110.361 96.0557C112.187 96.0557 113.667 97.5357 113.667 99.3612Z" fill="white"/>
<path fill-rule="evenodd" clip-rule="evenodd" d="M146.722 99.3612C146.722 101.187 145.242 102.667 143.417 102.667C141.591 102.667 140.111 101.187 140.111 99.3612C140.111 97.5357 141.591 96.0557 143.417 96.0557C145.242 96.0557 146.722 97.5357 146.722 99.3612Z" fill="white"/>
<path fill-rule="evenodd" clip-rule="evenodd" d="M179.778 99.3612C179.778 101.187 178.298 102.667 176.472 102.667C174.647 102.667 173.167 101.187 173.167 99.3612C173.167 97.5357 174.647 96.0557 176.472 96.0557C178.298 96.0557 179.778 97.5357 179.778 99.3612Z" fill="white"/>
<path fill-rule="evenodd" clip-rule="evenodd" d="M212.833 99.3612C212.833 101.187 211.353 102.667 209.528 102.667C207.702 102.667 206.222 101.187 206.222 99.3612C206.222 97.5357 207.702 96.0557 209.528 96.0557C211.353 96.0557 212.833 97.5357 212.833 99.3612Z" fill="white"/>
<path fill-rule="evenodd" clip-rule="evenodd" d="M245.889 99.3612C245.889 101.187 244.409 102.667 242.583 102.667C240.758 102.667 239.278 101.187 239.278 99.3612C239.278 97.5357 240.758 96.0557 242.583 96.0557C244.409 96.0557 245.889 97.5357 245.889 99.3612Z" fill="white"/>
<path fill-rule="evenodd" clip-rule="evenodd" d="M278.945 99.3612C278.945 101.187 277.465 102.667 275.639 102.667C273.814 102.667 272.333 101.187 272.333 99.3612C272.333 97.5357 273.814 96.0557 275.639 96.0557C277.465 96.0557 278.945 97.5357 278.945 99.3612Z" fill="white"/>
<path fill-rule="evenodd" clip-rule="evenodd" d="M312 99.3612C312 101.187 310.52 102.667 308.694 102.667C306.869 102.667 305.389 101.187 305.389 99.3612C305.389 97.5357 306.869 96.0557 308.694 96.0557C310.52 96.0557 312 97.5357 312 99.3612Z" fill="white"/>
<path fill-rule="evenodd" clip-rule="evenodd" d="M80.6111 132.417C80.6111 134.242 79.131 135.722 77.3056 135.722C75.4801 135.722 74 134.242 74 132.417C74 130.591 75.4801 129.111 77.3056 129.111C79.131 129.111 80.6111 130.591 80.6111 132.417Z" fill="white"/>
<path fill-rule="evenodd" clip-rule="evenodd" d="M113.667 132.417C113.667 134.242 112.187 135.722 110.361 135.722C108.536 135.722 107.056 134.242 107.056 132.417C107.056 130.591 108.536 129.111 110.361 129.111C112.187 129.111 113.667 130.591 113.667 132.417Z" fill="white"/>
<path fill-rule="evenodd" clip-rule="evenodd" d="M146.722 132.417C146.722 134.242 145.242 135.722 143.417 135.722C141.591 135.722 140.111 134.242 140.111 132.417C140.111 130.591 141.591 129.111 143.417 129.111C145.242 129.111 146.722 130.591 146.722 132.417Z" fill="white"/>
<path fill-rule="evenodd" clip-rule="evenodd" d="M179.778 132.417C179.778 134.242 178.298 135.722 176.472 135.722C174.647 135.722 173.167 134.242 173.167 132.417C173.167 130.591 174.647 129.111 176.472 129.111C178.298 129.111 179.778 130.591 179.778 132.417Z" fill="white"/>
<path fill-rule="evenodd" clip-rule="evenodd" d="M212.833 132.417C212.833 134.242 211.353 135.722 209.528 135.722C207.702 135.722 206.222 134.242 206.222 132.417C206.222 130.591 207.702 129.111 209.528 129.111C211.353 129.111 212.833 130.591 212.833 132.417Z" fill="white"/>
<path fill-rule="evenodd" clip-rule="evenodd" d="M245.889 132.417C245.889 134.242 244.409 135.722 242.583 135.722C240.758 135.722 239.278 134.242 239.278 132.417C239.278 130.591 240.758 129.111 242.583 129.111C244.409 129.111 245.889 130.591 245.889 132.417Z" fill="white"/>
<path fill-rule="evenodd" clip-rule="evenodd" d="M278.945 132.417C278.945 134.242 277.465 135.722 275.639 135.722C273.814 135.722 272.333 134.242 272.333 132.417C272.333 130.591 273.814 129.111 275.639 129.111C277.465 129.111 278.945 130.591 278.945 132.417Z" fill="white"/>
<path fill-rule="evenodd" clip-rule="evenodd" d="M312 132.417C312 134.242 310.52 135.722 308.694 135.722C306.869 135.722 305.389 134.242 305.389 132.417C305.389 130.591 306.869 129.111 308.694 129.111C310.52 129.111 312 130.591 312 132.417Z" fill="white"/>
<path fill-rule="evenodd" clip-rule="evenodd" d="M80.6111 165.472C80.6111 167.298 79.131 168.778 77.3056 168.778C75.4801 168.778 74 167.298 74 165.472C74 163.647 75.4801 162.167 77.3056 162.167C79.131 162.167 80.6111 163.647 80.6111 165.472Z" fill="white"/>
<path fill-rule="evenodd" clip-rule="evenodd" d="M113.667 165.472C113.667 167.298 112.187 168.778 110.361 168.778C108.536 168.778 107.056 167.298 107.056 165.472C107.056 163.647 108.536 162.167 110.361 162.167C112.187 162.167 113.667 163.647 113.667 165.472Z" fill="white"/>
<path fill-rule="evenodd" clip-rule="evenodd" d="M146.722 165.472C146.722 167.298 145.242 168.778 143.417 168.778C141.591 168.778 140.111 167.298 140.111 165.472C140.111 163.647 141.591 162.167 143.417 162.167C145.242 162.167 146.722 163.647 146.722 165.472Z" fill="white"/>
<path fill-rule="evenodd" clip-rule="evenodd" d="M179.778 165.472C179.778 167.298 178.298 168.778 176.472 168.778C174.647 168.778 173.167 167.298 173.167 165.472C173.167 163.647 174.647 162.167 176.472 162.167C178.298 162.167 179.778 163.647 179.778 165.472Z" fill="white"/>
<path fill-rule="evenodd" clip-rule="evenodd" d="M212.833 165.472C212.833 167.298 211.353 168.778 209.528 168.778C207.702 168.778 206.222 167.298 206.222 165.472C206.222 163.647 207.702 162.167 209.528 162.167C211.353 162.167 212.833 163.647 212.833 165.472Z" fill="white"/>
<path fill-rule="evenodd" clip-rule="evenodd" d="M245.889 165.472C245.889 167.298 244.409 168.778 242.583 168.778C240.758 168.778 239.278 167.298 239.278 165.472C239.278 163.647 240.758 162.167 242.583 162.167C244.409 162.167 245.889 163.647 245.889 165.472Z" fill="white"/>
<path fill-rule="evenodd" clip-rule="evenodd" d="M278.945 165.472C278.945 167.298 277.465 168.778 275.639 168.778C273.814 168.778 272.333 167.298 272.333 165.472C272.333 163.647 273.814 162.167 275.639 162.167C277.465 162.167 278.945 163.647 278.945 165.472Z" fill="white"/>
<path fill-rule="evenodd" clip-rule="evenodd" d="M312 165.472C312 167.298 310.52 168.778 308.694 168.778C306.869 168.778 305.389 167.298 305.389 165.472C305.389 163.647 306.869 162.167 308.694 162.167C310.52 162.167 312 163.647 312 165.472Z" fill="white"/>
<path fill-rule="evenodd" clip-rule="evenodd" d="M80.6111 198.528C80.6111 200.353 79.131 201.833 77.3056 201.833C75.4801 201.833 74 200.353 74 198.528C74 196.702 75.4801 195.222 77.3056 195.222C79.131 195.222 80.6111 196.702 80.6111 198.528Z" fill="white"/>
<path fill-rule="evenodd" clip-rule="evenodd" d="M113.667 198.528C113.667 200.353 112.187 201.833 110.361 201.833C108.536 201.833 107.056 200.353 107.056 198.528C107.056 196.702 108.536 195.222 110.361 195.222C112.187 195.222 113.667 196.702 113.667 198.528Z" fill="white"/>
<path fill-rule="evenodd" clip-rule="evenodd" d="M146.722 198.528C146.722 200.353 145.242 201.833 143.417 201.833C141.591 201.833 140.111 200.353 140.111 198.528C140.111 196.702 141.591 195.222 143.417 195.222C145.242 195.222 146.722 196.702 146.722 198.528Z" fill="white"/>
<path fill-rule="evenodd" clip-rule="evenodd" d="M179.778 198.528C179.778 200.353 178.298 201.833 176.472 201.833C174.647 201.833 173.167 200.353 173.167 198.528C173.167 196.702 174.647 195.222 176.472 195.222C178.298 195.222 179.778 196.702 179.778 198.528Z" fill="white"/>
<path fill-rule="evenodd" clip-rule="evenodd" d="M212.833 198.528C212.833 200.353 211.353 201.833 209.528 201.833C207.702 201.833 206.222 200.353 206.222 198.528C206.222 196.702 207.702 195.222 209.528 195.222C211.353 195.222 212.833 196.702 212.833 198.528Z" fill="white"/>
<path fill-rule="evenodd" clip-rule="evenodd" d="M245.889 198.528C245.889 200.353 244.409 201.833 242.583 201.833C240.758 201.833 239.278 200.353 239.278 198.528C239.278 196.702 240.758 195.222 242.583 195.222C244.409 195.222 245.889 196.702 245.889 198.528Z" fill="white"/>
<path fill-rule="evenodd" clip-rule="evenodd" d="M278.945 198.528C278.945 200.353 277.465 201.833 275.639 201.833C273.814 201.833 272.333 200.353 272.333 198.528C272.333 196.702 273.814 195.222 275.639 195.222C277.465 195.222 278.945 196.702 278.945 198.528Z" fill="white"/>
<path fill-rule="evenodd" clip-rule="evenodd" d="M312 198.528C312 200.353 310.52 201.833 308.694 201.833C306.869 201.833 305.389 200.353 305.389 198.528C305.389 196.702 306.869 195.222 308.694 195.222C310.52 195.222 312 196.702 312 198.528Z" fill="white"/>
<path fill-rule="evenodd" clip-rule="evenodd" d="M80.6111 231.583C80.6111 233.409 79.131 234.889 77.3056 234.889C75.4801 234.889 74 233.409 74 231.583C74 229.758 75.4801 228.278 77.3056 228.278C79.131 228.278 80.6111 229.758 80.6111 231.583Z" fill="white"/>
<path fill-rule="evenodd" clip-rule="evenodd" d="M113.667 231.583C113.667 233.409 112.187 234.889 110.361 234.889C108.536 234.889 107.056 233.409 107.056 231.583C107.056 229.758 108.536 228.278 110.361 228.278C112.187 228.278 113.667 229.758 113.667 231.583Z" fill="white"/>
<path fill-rule="evenodd" clip-rule="evenodd" d="M146.722 231.583C146.722 233.409 145.242 234.889 143.417 234.889C141.591 234.889 140.111 233.409 140.111 231.583C140.111 229.758 141.591 228.278 143.417 228.278C145.242 228.278 146.722 229.758 146.722 231.583Z" fill="white"/>
<path fill-rule="evenodd" clip-rule="evenodd" d="M179.778 231.583C179.778 233.409 178.298 234.889 176.472 234.889C174.647 234.889 173.167 233.409 173.167 231.583C173.167 229.758 174.647 228.278 176.472 228.278C178.298 228.278 179.778 229.758 179.778 231.583Z" fill="white"/>
<path fill-rule="evenodd" clip-rule="evenodd" d="M212.833 231.583C212.833 233.409 211.353 234.889 209.528 234.889C207.702 234.889 206.222 233.409 206.222 231.583C206.222 229.758 207.702 228.278 209.528 228.278C211.353 228.278 212.833 229.758 212.833 231.583Z" fill="white"/>
<path fill-rule="evenodd" clip-rule="evenodd" d="M245.889 231.583C245.889 233.409 244.409 234.889 242.583 234.889C240.758 234.889 239.278 233.409 239.278 231.583C239.278 229.758 240.758 228.278 242.583 228.278C244.409 228.278 245.889 229.758 245.889 231.583Z" fill="white"/>
<path fill-rule="evenodd" clip-rule="evenodd" d="M278.945 231.583C278.945 233.409 277.465 234.889 275.639 234.889C273.814 234.889 272.333 233.409 272.333 231.583C272.333 229.758 273.814 228.278 275.639 228.278C277.465 228.278 278.945 229.758 278.945 231.583Z" fill="white"/>
<path fill-rule="evenodd" clip-rule="evenodd" d="M312 231.583C312 233.409 310.52 234.889 308.694 234.889C306.869 234.889 305.389 233.409 305.389 231.583C305.389 229.758 306.869 228.278 308.694 228.278C310.52 228.278 312 229.758 312 231.583Z" fill="white"/>
<path fill-rule="evenodd" clip-rule="evenodd" d="M80.6111 264.639C80.6111 266.465 79.131 267.945 77.3056 267.945C75.4801 267.945 74 266.465 74 264.639C74 262.814 75.4801 261.333 77.3056 261.333C79.131 261.333 80.6111 262.814 80.6111 264.639Z" fill="white"/>
<path fill-rule="evenodd" clip-rule="evenodd" d="M113.667 264.639C113.667 266.465 112.187 267.945 110.361 267.945C108.536 267.945 107.056 266.465 107.056 264.639C107.056 262.814 108.536 261.333 110.361 261.333C112.187 261.333 113.667 262.814 113.667 264.639Z" fill="white"/>
<path fill-rule="evenodd" clip-rule="evenodd" d="M146.722 264.639C146.722 266.465 145.242 267.945 143.417 267.945C141.591 267.945 140.111 266.465 140.111 264.639C140.111 262.814 141.591 261.333 143.417 261.333C145.242 261.333 146.722 262.814 146.722 264.639Z" fill="white"/>
<path fill-rule="evenodd" clip-rule="evenodd" d="M179.778 264.639C179.778 266.465 178.298 267.945 176.472 267.945C174.647 267.945 173.167 266.465 173.167 264.639C173.167 262.814 174.647 261.333 176.472 261.333C178.298 261.333 179.778 262.814 179.778 264.639Z" fill="white"/>
<path fill-rule="evenodd" clip-rule="evenodd" d="M212.833 264.639C212.833 266.465 211.353 267.945 209.528 267.945C207.702 267.945 206.222 266.465 206.222 264.639C206.222 262.814 207.702 261.333 209.528 261.333C211.353 261.333 212.833 262.814 212.833 264.639Z" fill="white"/>
<path fill-rule="evenodd" clip-rule="evenodd" d="M245.889 264.639C245.889 266.465 244.409 267.945 242.583 267.945C240.758 267.945 239.278 266.465 239.278 264.639C239.278 262.814 240.758 261.333 242.583 261.333C244.409 261.333 245.889 262.814 245.889 264.639Z" fill="white"/>
<path fill-rule="evenodd" clip-rule="evenodd" d="M278.945 264.639C278.945 266.465 277.465 267.945 275.639 267.945C273.814 267.945 272.333 266.465 272.333 264.639C272.333 262.814 273.814 261.333 275.639 261.333C277.465 261.333 278.945 262.814 278.945 264.639Z" fill="white"/>
<path fill-rule="evenodd" clip-rule="evenodd" d="M312 264.639C312 266.465 310.52 267.945 308.694 267.945C306.869 267.945 305.389 266.465 305.389 264.639C305.389 262.814 306.869 261.333 308.694 261.333C310.52 261.333 312 262.814 312 264.639Z" fill="white"/>
<path fill-rule="evenodd" clip-rule="evenodd" d="M80.6111 297.694C80.6111 299.52 79.131 301 77.3056 301C75.4801 301 74 299.52 74 297.694C74 295.869 75.4801 294.389 77.3056 294.389C79.131 294.389 80.6111 295.869 80.6111 297.694Z" fill="white"/>
<path fill-rule="evenodd" clip-rule="evenodd" d="M113.667 297.694C113.667 299.52 112.187 301 110.361 301C108.536 301 107.056 299.52 107.056 297.694C107.056 295.869 108.536 294.389 110.361 294.389C112.187 294.389 113.667 295.869 113.667 297.694Z" fill="white"/>
<path fill-rule="evenodd" clip-rule="evenodd" d="M146.722 297.694C146.722 299.52 145.242 301 143.417 301C141.591 301 140.111 299.52 140.111 297.694C140.111 295.869 141.591 294.389 143.417 294.389C145.242 294.389 146.722 295.869 146.722 297.694Z" fill="white"/>
<path fill-rule="evenodd" clip-rule="evenodd" d="M179.778 297.694C179.778 299.52 178.298 301 176.472 301C174.647 301 173.167 299.52 173.167 297.694C173.167 295.869 174.647 294.389 176.472 294.389C178.298 294.389 179.778 295.869 179.778 297.694Z" fill="white"/>
<path fill-rule="evenodd" clip-rule="evenodd" d="M212.833 297.694C212.833 299.52 211.353 301 209.528 301C207.702 301 206.222 299.52 206.222 297.694C206.222 295.869 207.702 294.389 209.528 294.389C211.353 294.389 212.833 295.869 212.833 297.694Z" fill="white"/>
<path fill-rule="evenodd" clip-rule="evenodd" d="M245.889 297.694C245.889 299.52 244.409 301 242.583 301C240.758 301 239.278 299.52 239.278 297.694C239.278 295.869 240.758 294.389 242.583 294.389C244.409 294.389 245.889 295.869 245.889 297.694Z" fill="white"/>
<path fill-rule="evenodd" clip-rule="evenodd" d="M278.945 297.694C278.945 299.52 277.465 301 275.639 301C273.814 301 272.333 299.52 272.333 297.694C272.333 295.869 273.814 294.389 275.639 294.389C277.465 294.389 278.945 295.869 278.945 297.694Z" fill="white"/>
<path fill-rule="evenodd" clip-rule="evenodd" d="M312 297.694C312 299.52 310.52 301 308.694 301C306.869 301 305.389 299.52 305.389 297.694C305.389 295.869 306.869 294.389 308.694 294.389C310.52 294.389 312 295.869 312 297.694Z" fill="white"/>
<defs>
<filter id="filter0_d" x="977" y="610" width="188" height="188" filterUnits="userSpaceOnUse" color-interpolation-filters="sRGB">
<feFlood flood-opacity="0" result="BackgroundImageFix"/>
<feColorMatrix in="SourceAlpha" type="matrix" values="0 0 0 0 0 0 0 0 0 0 0 0 0 0 0 0 0 0 127 0"/>
<feOffset dx="40" dy="2"/>
<feGaussianBlur stdDeviation="40"/>
<feColorMatrix type="matrix" values="0 0 0 0 0 0 0 0 0 0 0 0 0 0 0 0 0 0 0.5 0"/>
<feBlend mode="normal" in2="BackgroundImageFix" result="effect1_dropShadow"/>
<feBlend mode="normal" in="SourceGraphic" in2="effect1_dropShadow" result="shape"/>
</filter>
</defs>
</svg>
