<svg width="1280" height="861" viewBox="0 0 1280 861" fill="none" xmlns="http://www.w3.org/2000/svg">
<rect y="75" width="1280" height="725" fill="white"/>
<rect x="690.964" y="160" width="990" height="990" rx="100" transform="rotate(-45 690.964 160)" fill="#3138D1"/>
<path fill-rule="evenodd" clip-rule="evenodd" d="M979.611 481.306C979.611 483.131 978.131 484.611 976.306 484.611C974.48 484.611 973 483.131 973 481.306C973 479.48 974.48 478 976.306 478C978.131 478 979.611 479.48 979.611 481.306" fill="white"/>
<path fill-rule="evenodd" clip-rule="evenodd" d="M1012.67 481.306C1012.67 483.131 1011.19 484.611 1009.36 484.611C1007.54 484.611 1006.06 483.131 1006.06 481.306C1006.06 479.48 1007.54 478 1009.36 478C1011.19 478 1012.67 479.48 1012.67 481.306" fill="white"/>
<path fill-rule="evenodd" clip-rule="evenodd" d="M1045.72 481.306C1045.72 483.131 1044.24 484.611 1042.42 484.611C1040.59 484.611 1039.11 483.131 1039.11 481.306C1039.11 479.48 1040.59 478 1042.42 478C1044.24 478 1045.72 479.48 1045.72 481.306" fill="white"/>
<path fill-rule="evenodd" clip-rule="evenodd" d="M1078.78 481.306C1078.78 483.131 1077.3 484.611 1075.47 484.611C1073.65 484.611 1072.17 483.131 1072.17 481.306C1072.17 479.48 1073.65 478 1075.47 478C1077.3 478 1078.78 479.48 1078.78 481.306" fill="white"/>
<path fill-rule="evenodd" clip-rule="evenodd" d="M1111.83 481.306C1111.83 483.131 1110.35 484.611 1108.53 484.611C1106.7 484.611 1105.22 483.131 1105.22 481.306C1105.22 479.48 1106.7 478 1108.53 478C1110.35 478 1111.83 479.48 1111.83 481.306" fill="white"/>
<path fill-rule="evenodd" clip-rule="evenodd" d="M1144.89 481.306C1144.89 483.131 1143.41 484.611 1141.58 484.611C1139.76 484.611 1138.28 483.131 1138.28 481.306C1138.28 479.48 1139.76 478 1141.58 478C1143.41 478 1144.89 479.48 1144.89 481.306" fill="white"/>
<path fill-rule="evenodd" clip-rule="evenodd" d="M1177.94 481.306C1177.94 483.131 1176.46 484.611 1174.64 484.611C1172.81 484.611 1171.33 483.131 1171.33 481.306C1171.33 479.48 1172.81 478 1174.64 478C1176.46 478 1177.94 479.48 1177.94 481.306" fill="white"/>
<path fill-rule="evenodd" clip-rule="evenodd" d="M1211 481.306C1211 483.131 1209.52 484.611 1207.69 484.611C1205.87 484.611 1204.39 483.131 1204.39 481.306C1204.39 479.48 1205.87 478 1207.69 478C1209.52 478 1211 479.48 1211 481.306" fill="white"/>
<path fill-rule="evenodd" clip-rule="evenodd" d="M979.611 514.361C979.611 516.187 978.131 517.667 976.306 517.667C974.48 517.667 973 516.187 973 514.361C973 512.536 974.48 511.056 976.306 511.056C978.131 511.056 979.611 512.536 979.611 514.361" fill="white"/>
<path fill-rule="evenodd" clip-rule="evenodd" d="M1012.67 514.361C1012.67 516.187 1011.19 517.667 1009.36 517.667C1007.54 517.667 1006.06 516.187 1006.06 514.361C1006.06 512.536 1007.54 511.056 1009.36 511.056C1011.19 511.056 1012.67 512.536 1012.67 514.361" fill="white"/>
<path fill-rule="evenodd" clip-rule="evenodd" d="M1045.72 514.361C1045.72 516.187 1044.24 517.667 1042.42 517.667C1040.59 517.667 1039.11 516.187 1039.11 514.361C1039.11 512.536 1040.59 511.056 1042.42 511.056C1044.24 511.056 1045.72 512.536 1045.72 514.361" fill="white"/>
<path fill-rule="evenodd" clip-rule="evenodd" d="M1078.78 514.361C1078.78 516.187 1077.3 517.667 1075.47 517.667C1073.65 517.667 1072.17 516.187 1072.17 514.361C1072.17 512.536 1073.65 511.056 1075.47 511.056C1077.3 511.056 1078.78 512.536 1078.78 514.361" fill="white"/>
<path fill-rule="evenodd" clip-rule="evenodd" d="M1111.83 514.361C1111.83 516.187 1110.35 517.667 1108.53 517.667C1106.7 517.667 1105.22 516.187 1105.22 514.361C1105.22 512.536 1106.7 511.056 1108.53 511.056C1110.35 511.056 1111.83 512.536 1111.83 514.361" fill="white"/>
<path fill-rule="evenodd" clip-rule="evenodd" d="M1144.89 514.361C1144.89 516.187 1143.41 517.667 1141.58 517.667C1139.76 517.667 1138.28 516.187 1138.28 514.361C1138.28 512.536 1139.76 511.056 1141.58 511.056C1143.41 511.056 1144.89 512.536 1144.89 514.361" fill="white"/>
<path fill-rule="evenodd" clip-rule="evenodd" d="M1177.94 514.361C1177.94 516.187 1176.46 517.667 1174.64 517.667C1172.81 517.667 1171.33 516.187 1171.33 514.361C1171.33 512.536 1172.81 511.056 1174.64 511.056C1176.46 511.056 1177.94 512.536 1177.94 514.361" fill="white"/>
<path fill-rule="evenodd" clip-rule="evenodd" d="M1211 514.361C1211 516.187 1209.52 517.667 1207.69 517.667C1205.87 517.667 1204.39 516.187 1204.39 514.361C1204.39 512.536 1205.87 511.056 1207.69 511.056C1209.52 511.056 1211 512.536 1211 514.361" fill="white"/>
<path fill-rule="evenodd" clip-rule="evenodd" d="M979.611 547.417C979.611 549.242 978.131 550.722 976.306 550.722C974.48 550.722 973 549.242 973 547.417C973 545.591 974.48 544.111 976.306 544.111C978.131 544.111 979.611 545.591 979.611 547.417" fill="white"/>
<path fill-rule="evenodd" clip-rule="evenodd" d="M1012.67 547.417C1012.67 549.242 1011.19 550.722 1009.36 550.722C1007.54 550.722 1006.06 549.242 1006.06 547.417C1006.06 545.591 1007.54 544.111 1009.36 544.111C1011.19 544.111 1012.67 545.591 1012.67 547.417" fill="white"/>
<path fill-rule="evenodd" clip-rule="evenodd" d="M1045.72 547.417C1045.72 549.242 1044.24 550.722 1042.42 550.722C1040.59 550.722 1039.11 549.242 1039.11 547.417C1039.11 545.591 1040.59 544.111 1042.42 544.111C1044.24 544.111 1045.72 545.591 1045.72 547.417" fill="white"/>
<path fill-rule="evenodd" clip-rule="evenodd" d="M1078.78 547.417C1078.78 549.242 1077.3 550.722 1075.47 550.722C1073.65 550.722 1072.17 549.242 1072.17 547.417C1072.17 545.591 1073.65 544.111 1075.47 544.111C1077.3 544.111 1078.78 545.591 1078.78 547.417" fill="white"/>
<path fill-rule="evenodd" clip-rule="evenodd" d="M1111.83 547.417C1111.83 549.242 1110.35 550.722 1108.53 550.722C1106.7 550.722 1105.22 549.242 1105.22 547.417C1105.22 545.591 1106.7 544.111 1108.53 544.111C1110.35 544.111 1111.83 545.591 1111.83 547.417" fill="white"/>
<path fill-rule="evenodd" clip-rule="evenodd" d="M1144.89 547.417C1144.89 549.242 1143.41 550.722 1141.58 550.722C1139.76 550.722 1138.28 549.242 1138.28 547.417C1138.28 545.591 1139.76 544.111 1141.58 544.111C1143.41 544.111 1144.89 545.591 1144.89 547.417" fill="white"/>
<path fill-rule="evenodd" clip-rule="evenodd" d="M1177.94 547.417C1177.94 549.242 1176.46 550.722 1174.64 550.722C1172.81 550.722 1171.33 549.242 1171.33 547.417C1171.33 545.591 1172.81 544.111 1174.64 544.111C1176.46 544.111 1177.94 545.591 1177.94 547.417" fill="white"/>
<path fill-rule="evenodd" clip-rule="evenodd" d="M1211 547.417C1211 549.242 1209.52 550.722 1207.69 550.722C1205.87 550.722 1204.39 549.242 1204.39 547.417C1204.39 545.591 1205.87 544.111 1207.69 544.111C1209.52 544.111 1211 545.591 1211 547.417" fill="white"/>
<path fill-rule="evenodd" clip-rule="evenodd" d="M979.611 580.472C979.611 582.298 978.131 583.778 976.306 583.778C974.48 583.778 973 582.298 973 580.472C973 578.647 974.48 577.167 976.306 577.167C978.131 577.167 979.611 578.647 979.611 580.472" fill="white"/>
<path fill-rule="evenodd" clip-rule="evenodd" d="M1012.67 580.472C1012.67 582.298 1011.19 583.778 1009.36 583.778C1007.54 583.778 1006.06 582.298 1006.06 580.472C1006.06 578.647 1007.54 577.167 1009.36 577.167C1011.19 577.167 1012.67 578.647 1012.67 580.472" fill="white"/>
<path fill-rule="evenodd" clip-rule="evenodd" d="M1045.72 580.472C1045.72 582.298 1044.24 583.778 1042.42 583.778C1040.59 583.778 1039.11 582.298 1039.11 580.472C1039.11 578.647 1040.59 577.167 1042.42 577.167C1044.24 577.167 1045.72 578.647 1045.72 580.472" fill="white"/>
<path fill-rule="evenodd" clip-rule="evenodd" d="M1078.78 580.472C1078.78 582.298 1077.3 583.778 1075.47 583.778C1073.65 583.778 1072.17 582.298 1072.17 580.472C1072.17 578.647 1073.65 577.167 1075.47 577.167C1077.3 577.167 1078.78 578.647 1078.78 580.472" fill="white"/>
<path fill-rule="evenodd" clip-rule="evenodd" d="M1111.83 580.472C1111.83 582.298 1110.35 583.778 1108.53 583.778C1106.7 583.778 1105.22 582.298 1105.22 580.472C1105.22 578.647 1106.7 577.167 1108.53 577.167C1110.35 577.167 1111.83 578.647 1111.83 580.472" fill="white"/>
<path fill-rule="evenodd" clip-rule="evenodd" d="M1144.89 580.472C1144.89 582.298 1143.41 583.778 1141.58 583.778C1139.76 583.778 1138.28 582.298 1138.28 580.472C1138.28 578.647 1139.76 577.167 1141.58 577.167C1143.41 577.167 1144.89 578.647 1144.89 580.472" fill="white"/>
<path fill-rule="evenodd" clip-rule="evenodd" d="M1177.94 580.472C1177.94 582.298 1176.46 583.778 1174.64 583.778C1172.81 583.778 1171.33 582.298 1171.33 580.472C1171.33 578.647 1172.81 577.167 1174.64 577.167C1176.46 577.167 1177.94 578.647 1177.94 580.472" fill="white"/>
<path fill-rule="evenodd" clip-rule="evenodd" d="M1211 580.472C1211 582.298 1209.52 583.778 1207.69 583.778C1205.87 583.778 1204.39 582.298 1204.39 580.472C1204.39 578.647 1205.87 577.167 1207.69 577.167C1209.52 577.167 1211 578.647 1211 580.472" fill="white"/>
<path fill-rule="evenodd" clip-rule="evenodd" d="M979.611 613.528C979.611 615.353 978.131 616.833 976.306 616.833C974.48 616.833 973 615.353 973 613.528C973 611.702 974.48 610.222 976.306 610.222C978.131 610.222 979.611 611.702 979.611 613.528" fill="white"/>
<path fill-rule="evenodd" clip-rule="evenodd" d="M1012.67 613.528C1012.67 615.353 1011.19 616.833 1009.36 616.833C1007.54 616.833 1006.06 615.353 1006.06 613.528C1006.06 611.702 1007.54 610.222 1009.36 610.222C1011.19 610.222 1012.67 611.702 1012.67 613.528" fill="white"/>
<path fill-rule="evenodd" clip-rule="evenodd" d="M1045.72 613.528C1045.72 615.353 1044.24 616.833 1042.42 616.833C1040.59 616.833 1039.11 615.353 1039.11 613.528C1039.11 611.702 1040.59 610.222 1042.42 610.222C1044.24 610.222 1045.72 611.702 1045.72 613.528" fill="white"/>
<path fill-rule="evenodd" clip-rule="evenodd" d="M1078.78 613.528C1078.78 615.353 1077.3 616.833 1075.47 616.833C1073.65 616.833 1072.17 615.353 1072.17 613.528C1072.17 611.702 1073.65 610.222 1075.47 610.222C1077.3 610.222 1078.78 611.702 1078.78 613.528" fill="white"/>
<path fill-rule="evenodd" clip-rule="evenodd" d="M1111.83 613.528C1111.83 615.353 1110.35 616.833 1108.53 616.833C1106.7 616.833 1105.22 615.353 1105.22 613.528C1105.22 611.702 1106.7 610.222 1108.53 610.222C1110.35 610.222 1111.83 611.702 1111.83 613.528" fill="white"/>
<path fill-rule="evenodd" clip-rule="evenodd" d="M1144.89 613.528C1144.89 615.353 1143.41 616.833 1141.58 616.833C1139.76 616.833 1138.28 615.353 1138.28 613.528C1138.28 611.702 1139.76 610.222 1141.58 610.222C1143.41 610.222 1144.89 611.702 1144.89 613.528" fill="white"/>
<path fill-rule="evenodd" clip-rule="evenodd" d="M1177.94 613.528C1177.94 615.353 1176.46 616.833 1174.64 616.833C1172.81 616.833 1171.33 615.353 1171.33 613.528C1171.33 611.702 1172.81 610.222 1174.64 610.222C1176.46 610.222 1177.94 611.702 1177.94 613.528" fill="white"/>
<path fill-rule="evenodd" clip-rule="evenodd" d="M1211 613.528C1211 615.353 1209.52 616.833 1207.69 616.833C1205.87 616.833 1204.39 615.353 1204.39 613.528C1204.39 611.702 1205.87 610.222 1207.69 610.222C1209.52 610.222 1211 611.702 1211 613.528" fill="white"/>
<path fill-rule="evenodd" clip-rule="evenodd" d="M979.611 646.583C979.611 648.409 978.131 649.889 976.306 649.889C974.48 649.889 973 648.409 973 646.583C973 644.758 974.48 643.278 976.306 643.278C978.131 643.278 979.611 644.758 979.611 646.583" fill="white"/>
<path fill-rule="evenodd" clip-rule="evenodd" d="M1012.67 646.583C1012.67 648.409 1011.19 649.889 1009.36 649.889C1007.54 649.889 1006.06 648.409 1006.06 646.583C1006.06 644.758 1007.54 643.278 1009.36 643.278C1011.19 643.278 1012.67 644.758 1012.67 646.583" fill="white"/>
<path fill-rule="evenodd" clip-rule="evenodd" d="M1045.72 646.583C1045.72 648.409 1044.24 649.889 1042.42 649.889C1040.59 649.889 1039.11 648.409 1039.11 646.583C1039.11 644.758 1040.59 643.278 1042.42 643.278C1044.24 643.278 1045.72 644.758 1045.72 646.583" fill="white"/>
<path fill-rule="evenodd" clip-rule="evenodd" d="M1078.78 646.583C1078.78 648.409 1077.3 649.889 1075.47 649.889C1073.65 649.889 1072.17 648.409 1072.17 646.583C1072.17 644.758 1073.65 643.278 1075.47 643.278C1077.3 643.278 1078.78 644.758 1078.78 646.583" fill="white"/>
<path fill-rule="evenodd" clip-rule="evenodd" d="M1111.83 646.583C1111.83 648.409 1110.35 649.889 1108.53 649.889C1106.7 649.889 1105.22 648.409 1105.22 646.583C1105.22 644.758 1106.7 643.278 1108.53 643.278C1110.35 643.278 1111.83 644.758 1111.83 646.583" fill="white"/>
<path fill-rule="evenodd" clip-rule="evenodd" d="M1144.89 646.583C1144.89 648.409 1143.41 649.889 1141.58 649.889C1139.76 649.889 1138.28 648.409 1138.28 646.583C1138.28 644.758 1139.76 643.278 1141.58 643.278C1143.41 643.278 1144.89 644.758 1144.89 646.583" fill="white"/>
<path fill-rule="evenodd" clip-rule="evenodd" d="M1177.94 646.583C1177.94 648.409 1176.46 649.889 1174.64 649.889C1172.81 649.889 1171.33 648.409 1171.33 646.583C1171.33 644.758 1172.81 643.278 1174.64 643.278C1176.46 643.278 1177.94 644.758 1177.94 646.583" fill="white"/>
<path fill-rule="evenodd" clip-rule="evenodd" d="M1211 646.583C1211 648.409 1209.52 649.889 1207.69 649.889C1205.87 649.889 1204.39 648.409 1204.39 646.583C1204.39 644.758 1205.87 643.278 1207.69 643.278C1209.52 643.278 1211 644.758 1211 646.583" fill="white"/>
<path fill-rule="evenodd" clip-rule="evenodd" d="M979.611 679.639C979.611 681.464 978.131 682.944 976.306 682.944C974.48 682.944 973 681.464 973 679.639C973 677.813 974.48 676.333 976.306 676.333C978.131 676.333 979.611 677.813 979.611 679.639" fill="white"/>
<path fill-rule="evenodd" clip-rule="evenodd" d="M1012.67 679.639C1012.67 681.464 1011.19 682.944 1009.36 682.944C1007.54 682.944 1006.06 681.464 1006.06 679.639C1006.06 677.813 1007.54 676.333 1009.36 676.333C1011.19 676.333 1012.67 677.813 1012.67 679.639" fill="white"/>
<path fill-rule="evenodd" clip-rule="evenodd" d="M1045.72 679.639C1045.72 681.464 1044.24 682.944 1042.42 682.944C1040.59 682.944 1039.11 681.464 1039.11 679.639C1039.11 677.813 1040.59 676.333 1042.42 676.333C1044.24 676.333 1045.72 677.813 1045.72 679.639" fill="white"/>
<path fill-rule="evenodd" clip-rule="evenodd" d="M1078.78 679.639C1078.78 681.464 1077.3 682.944 1075.47 682.944C1073.65 682.944 1072.17 681.464 1072.17 679.639C1072.17 677.813 1073.65 676.333 1075.47 676.333C1077.3 676.333 1078.78 677.813 1078.78 679.639" fill="white"/>
<path fill-rule="evenodd" clip-rule="evenodd" d="M1111.83 679.639C1111.83 681.464 1110.35 682.944 1108.53 682.944C1106.7 682.944 1105.22 681.464 1105.22 679.639C1105.22 677.813 1106.7 676.333 1108.53 676.333C1110.35 676.333 1111.83 677.813 1111.83 679.639" fill="white"/>
<path fill-rule="evenodd" clip-rule="evenodd" d="M1144.89 679.639C1144.89 681.464 1143.41 682.944 1141.58 682.944C1139.76 682.944 1138.28 681.464 1138.28 679.639C1138.28 677.813 1139.76 676.333 1141.58 676.333C1143.41 676.333 1144.89 677.813 1144.89 679.639" fill="white"/>
<path fill-rule="evenodd" clip-rule="evenodd" d="M1177.94 679.639C1177.94 681.464 1176.46 682.944 1174.64 682.944C1172.81 682.944 1171.33 681.464 1171.33 679.639C1171.33 677.813 1172.81 676.333 1174.64 676.333C1176.46 676.333 1177.94 677.813 1177.94 679.639" fill="white"/>
<path fill-rule="evenodd" clip-rule="evenodd" d="M1211 679.639C1211 681.464 1209.52 682.944 1207.69 682.944C1205.87 682.944 1204.39 681.464 1204.39 679.639C1204.39 677.813 1205.87 676.333 1207.69 676.333C1209.52 676.333 1211 677.813 1211 679.639" fill="white"/>
<path fill-rule="evenodd" clip-rule="evenodd" d="M979.611 712.694C979.611 714.52 978.131 716 976.306 716C974.48 716 973 714.52 973 712.694C973 710.869 974.48 709.389 976.306 709.389C978.131 709.389 979.611 710.869 979.611 712.694" fill="white"/>
<path fill-rule="evenodd" clip-rule="evenodd" d="M1012.67 712.694C1012.67 714.52 1011.19 716 1009.36 716C1007.54 716 1006.06 714.52 1006.06 712.694C1006.06 710.869 1007.54 709.389 1009.36 709.389C1011.19 709.389 1012.67 710.869 1012.67 712.694" fill="white"/>
<path fill-rule="evenodd" clip-rule="evenodd" d="M1045.72 712.694C1045.72 714.52 1044.24 716 1042.42 716C1040.59 716 1039.11 714.52 1039.11 712.694C1039.11 710.869 1040.59 709.389 1042.42 709.389C1044.24 709.389 1045.72 710.869 1045.72 712.694" fill="white"/>
<path fill-rule="evenodd" clip-rule="evenodd" d="M1078.78 712.694C1078.78 714.52 1077.3 716 1075.47 716C1073.65 716 1072.17 714.52 1072.17 712.694C1072.17 710.869 1073.65 709.389 1075.47 709.389C1077.3 709.389 1078.78 710.869 1078.78 712.694" fill="white"/>
<path fill-rule="evenodd" clip-rule="evenodd" d="M1111.83 712.694C1111.83 714.52 1110.35 716 1108.53 716C1106.7 716 1105.22 714.52 1105.22 712.694C1105.22 710.869 1106.7 709.389 1108.53 709.389C1110.35 709.389 1111.83 710.869 1111.83 712.694" fill="white"/>
<path fill-rule="evenodd" clip-rule="evenodd" d="M1144.89 712.694C1144.89 714.52 1143.41 716 1141.58 716C1139.76 716 1138.28 714.52 1138.28 712.694C1138.28 710.869 1139.76 709.389 1141.58 709.389C1143.41 709.389 1144.89 710.869 1144.89 712.694" fill="white"/>
<path fill-rule="evenodd" clip-rule="evenodd" d="M1177.94 712.694C1177.94 714.52 1176.46 716 1174.64 716C1172.81 716 1171.33 714.52 1171.33 712.694C1171.33 710.869 1172.81 709.389 1174.64 709.389C1176.46 709.389 1177.94 710.869 1177.94 712.694" fill="white"/>
<path fill-rule="evenodd" clip-rule="evenodd" d="M1211 712.694C1211 714.52 1209.52 716 1207.69 716C1205.87 716 1204.39 714.52 1204.39 712.694C1204.39 710.869 1205.87 709.389 1207.69 709.389C1209.52 709.389 1211 710.869 1211 712.694" fill="white"/>
<g filter="url(#filter0_d)">
<circle cx="1091" cy="285" r="12" stroke="white" stroke-width="4"/>
</g>
<g opacity="0.270089">
<path fill-rule="evenodd" clip-rule="evenodd" d="M712.611 6.36111C712.611 8.18661 711.131 9.66667 709.306 9.66667C707.48 9.66667 706 8.18661 706 6.36111C706 4.53562 707.48 3.05556 709.306 3.05556C711.131 3.05556 712.611 4.53562 712.611 6.36111" fill="white"/>
<path fill-rule="evenodd" clip-rule="evenodd" d="M745.667 6.36111C745.667 8.18661 744.187 9.66667 742.361 9.66667C740.536 9.66667 739.056 8.18661 739.056 6.36111C739.056 4.53562 740.536 3.05556 742.361 3.05556C744.187 3.05556 745.667 4.53562 745.667 6.36111" fill="white"/>
<path fill-rule="evenodd" clip-rule="evenodd" d="M778.722 6.36111C778.722 8.18661 777.242 9.66667 775.417 9.66667C773.591 9.66667 772.111 8.18661 772.111 6.36111C772.111 4.53562 773.591 3.05556 775.417 3.05556C777.242 3.05556 778.722 4.53562 778.722 6.36111" fill="white"/>
<path fill-rule="evenodd" clip-rule="evenodd" d="M811.778 6.36111C811.778 8.18661 810.298 9.66667 808.472 9.66667C806.647 9.66667 805.167 8.18661 805.167 6.36111C805.167 4.53562 806.647 3.05556 808.472 3.05556C810.298 3.05556 811.778 4.53562 811.778 6.36111" fill="white"/>
<path fill-rule="evenodd" clip-rule="evenodd" d="M844.833 6.36111C844.833 8.18661 843.353 9.66667 841.528 9.66667C839.702 9.66667 838.222 8.18661 838.222 6.36111C838.222 4.53562 839.702 3.05556 841.528 3.05556C843.353 3.05556 844.833 4.53562 844.833 6.36111" fill="white"/>
<path fill-rule="evenodd" clip-rule="evenodd" d="M877.889 6.36111C877.889 8.18661 876.409 9.66667 874.583 9.66667C872.758 9.66667 871.278 8.18661 871.278 6.36111C871.278 4.53562 872.758 3.05556 874.583 3.05556C876.409 3.05556 877.889 4.53562 877.889 6.36111" fill="white"/>
<path fill-rule="evenodd" clip-rule="evenodd" d="M910.945 6.36111C910.945 8.18661 909.465 9.66667 907.639 9.66667C905.814 9.66667 904.333 8.18661 904.333 6.36111C904.333 4.53562 905.814 3.05556 907.639 3.05556C909.465 3.05556 910.945 4.53562 910.945 6.36111" fill="white"/>
<path fill-rule="evenodd" clip-rule="evenodd" d="M944 6.36111C944 8.18661 942.52 9.66667 940.694 9.66667C938.869 9.66667 937.389 8.18661 937.389 6.36111C937.389 4.53562 938.869 3.05556 940.694 3.05556C942.52 3.05556 944 4.53562 944 6.36111" fill="white"/>
<path fill-rule="evenodd" clip-rule="evenodd" d="M712.611 39.4167C712.611 41.2422 711.131 42.7222 709.306 42.7222C707.48 42.7222 706 41.2422 706 39.4167C706 37.5912 707.48 36.1111 709.306 36.1111C711.131 36.1111 712.611 37.5912 712.611 39.4167" fill="white"/>
<path fill-rule="evenodd" clip-rule="evenodd" d="M745.667 39.4167C745.667 41.2422 744.187 42.7222 742.361 42.7222C740.536 42.7222 739.056 41.2422 739.056 39.4167C739.056 37.5912 740.536 36.1111 742.361 36.1111C744.187 36.1111 745.667 37.5912 745.667 39.4167" fill="white"/>
<path fill-rule="evenodd" clip-rule="evenodd" d="M778.722 39.4167C778.722 41.2422 777.242 42.7222 775.417 42.7222C773.591 42.7222 772.111 41.2422 772.111 39.4167C772.111 37.5912 773.591 36.1111 775.417 36.1111C777.242 36.1111 778.722 37.5912 778.722 39.4167" fill="white"/>
<path fill-rule="evenodd" clip-rule="evenodd" d="M811.778 39.4167C811.778 41.2422 810.298 42.7222 808.472 42.7222C806.647 42.7222 805.167 41.2422 805.167 39.4167C805.167 37.5912 806.647 36.1111 808.472 36.1111C810.298 36.1111 811.778 37.5912 811.778 39.4167" fill="white"/>
<path fill-rule="evenodd" clip-rule="evenodd" d="M844.833 39.4167C844.833 41.2422 843.353 42.7222 841.528 42.7222C839.702 42.7222 838.222 41.2422 838.222 39.4167C838.222 37.5912 839.702 36.1111 841.528 36.1111C843.353 36.1111 844.833 37.5912 844.833 39.4167" fill="white"/>
<path fill-rule="evenodd" clip-rule="evenodd" d="M877.889 39.4167C877.889 41.2422 876.409 42.7222 874.583 42.7222C872.758 42.7222 871.278 41.2422 871.278 39.4167C871.278 37.5912 872.758 36.1111 874.583 36.1111C876.409 36.1111 877.889 37.5912 877.889 39.4167" fill="white"/>
<path fill-rule="evenodd" clip-rule="evenodd" d="M910.945 39.4167C910.945 41.2422 909.465 42.7222 907.639 42.7222C905.814 42.7222 904.333 41.2422 904.333 39.4167C904.333 37.5912 905.814 36.1111 907.639 36.1111C909.465 36.1111 910.945 37.5912 910.945 39.4167" fill="white"/>
<path fill-rule="evenodd" clip-rule="evenodd" d="M944 39.4167C944 41.2422 942.52 42.7222 940.694 42.7222C938.869 42.7222 937.389 41.2422 937.389 39.4167C937.389 37.5912 938.869 36.1111 940.694 36.1111C942.52 36.1111 944 37.5912 944 39.4167" fill="white"/>
<path fill-rule="evenodd" clip-rule="evenodd" d="M712.611 72.4722C712.611 74.2977 711.131 75.7778 709.306 75.7778C707.48 75.7778 706 74.2977 706 72.4722C706 70.6467 707.48 69.1667 709.306 69.1667C711.131 69.1667 712.611 70.6467 712.611 72.4722" fill="white"/>
<path fill-rule="evenodd" clip-rule="evenodd" d="M745.667 72.4722C745.667 74.2977 744.187 75.7778 742.361 75.7778C740.536 75.7778 739.056 74.2977 739.056 72.4722C739.056 70.6467 740.536 69.1667 742.361 69.1667C744.187 69.1667 745.667 70.6467 745.667 72.4722" fill="white"/>
<path fill-rule="evenodd" clip-rule="evenodd" d="M778.722 72.4722C778.722 74.2977 777.242 75.7778 775.417 75.7778C773.591 75.7778 772.111 74.2977 772.111 72.4722C772.111 70.6467 773.591 69.1667 775.417 69.1667C777.242 69.1667 778.722 70.6467 778.722 72.4722" fill="white"/>
<path fill-rule="evenodd" clip-rule="evenodd" d="M811.778 72.4722C811.778 74.2977 810.298 75.7778 808.472 75.7778C806.647 75.7778 805.167 74.2977 805.167 72.4722C805.167 70.6467 806.647 69.1667 808.472 69.1667C810.298 69.1667 811.778 70.6467 811.778 72.4722" fill="white"/>
<path fill-rule="evenodd" clip-rule="evenodd" d="M844.833 72.4722C844.833 74.2977 843.353 75.7778 841.528 75.7778C839.702 75.7778 838.222 74.2977 838.222 72.4722C838.222 70.6467 839.702 69.1667 841.528 69.1667C843.353 69.1667 844.833 70.6467 844.833 72.4722" fill="white"/>
<path fill-rule="evenodd" clip-rule="evenodd" d="M877.889 72.4722C877.889 74.2977 876.409 75.7778 874.583 75.7778C872.758 75.7778 871.278 74.2977 871.278 72.4722C871.278 70.6467 872.758 69.1667 874.583 69.1667C876.409 69.1667 877.889 70.6467 877.889 72.4722" fill="white"/>
<path fill-rule="evenodd" clip-rule="evenodd" d="M910.945 72.4722C910.945 74.2977 909.465 75.7778 907.639 75.7778C905.814 75.7778 904.333 74.2977 904.333 72.4722C904.333 70.6467 905.814 69.1667 907.639 69.1667C909.465 69.1667 910.945 70.6467 910.945 72.4722" fill="white"/>
<path fill-rule="evenodd" clip-rule="evenodd" d="M944 72.4722C944 74.2977 942.52 75.7778 940.694 75.7778C938.869 75.7778 937.389 74.2977 937.389 72.4722C937.389 70.6467 938.869 69.1667 940.694 69.1667C942.52 69.1667 944 70.6467 944 72.4722" fill="white"/>
<path fill-rule="evenodd" clip-rule="evenodd" d="M712.611 105.528C712.611 107.353 711.131 108.833 709.306 108.833C707.48 108.833 706 107.353 706 105.528C706 103.702 707.48 102.222 709.306 102.222C711.131 102.222 712.611 103.702 712.611 105.528" fill="white"/>
<path fill-rule="evenodd" clip-rule="evenodd" d="M745.667 105.528C745.667 107.353 744.187 108.833 742.361 108.833C740.536 108.833 739.056 107.353 739.056 105.528C739.056 103.702 740.536 102.222 742.361 102.222C744.187 102.222 745.667 103.702 745.667 105.528" fill="white"/>
<path fill-rule="evenodd" clip-rule="evenodd" d="M778.722 105.528C778.722 107.353 777.242 108.833 775.417 108.833C773.591 108.833 772.111 107.353 772.111 105.528C772.111 103.702 773.591 102.222 775.417 102.222C777.242 102.222 778.722 103.702 778.722 105.528" fill="white"/>
<path fill-rule="evenodd" clip-rule="evenodd" d="M811.778 105.528C811.778 107.353 810.298 108.833 808.472 108.833C806.647 108.833 805.167 107.353 805.167 105.528C805.167 103.702 806.647 102.222 808.472 102.222C810.298 102.222 811.778 103.702 811.778 105.528" fill="white"/>
<path fill-rule="evenodd" clip-rule="evenodd" d="M844.833 105.528C844.833 107.353 843.353 108.833 841.528 108.833C839.702 108.833 838.222 107.353 838.222 105.528C838.222 103.702 839.702 102.222 841.528 102.222C843.353 102.222 844.833 103.702 844.833 105.528" fill="white"/>
<path fill-rule="evenodd" clip-rule="evenodd" d="M877.889 105.528C877.889 107.353 876.409 108.833 874.583 108.833C872.758 108.833 871.278 107.353 871.278 105.528C871.278 103.702 872.758 102.222 874.583 102.222C876.409 102.222 877.889 103.702 877.889 105.528" fill="white"/>
<path fill-rule="evenodd" clip-rule="evenodd" d="M910.945 105.528C910.945 107.353 909.465 108.833 907.639 108.833C905.814 108.833 904.333 107.353 904.333 105.528C904.333 103.702 905.814 102.222 907.639 102.222C909.465 102.222 910.945 103.702 910.945 105.528" fill="white"/>
<path fill-rule="evenodd" clip-rule="evenodd" d="M944 105.528C944 107.353 942.52 108.833 940.694 108.833C938.869 108.833 937.389 107.353 937.389 105.528C937.389 103.702 938.869 102.222 940.694 102.222C942.52 102.222 944 103.702 944 105.528" fill="white"/>
<path fill-rule="evenodd" clip-rule="evenodd" d="M712.611 138.583C712.611 140.409 711.131 141.889 709.306 141.889C707.48 141.889 706 140.409 706 138.583C706 136.758 707.48 135.278 709.306 135.278C711.131 135.278 712.611 136.758 712.611 138.583" fill="white"/>
<path fill-rule="evenodd" clip-rule="evenodd" d="M745.667 138.583C745.667 140.409 744.187 141.889 742.361 141.889C740.536 141.889 739.056 140.409 739.056 138.583C739.056 136.758 740.536 135.278 742.361 135.278C744.187 135.278 745.667 136.758 745.667 138.583" fill="white"/>
<path fill-rule="evenodd" clip-rule="evenodd" d="M778.722 138.583C778.722 140.409 777.242 141.889 775.417 141.889C773.591 141.889 772.111 140.409 772.111 138.583C772.111 136.758 773.591 135.278 775.417 135.278C777.242 135.278 778.722 136.758 778.722 138.583" fill="white"/>
<path fill-rule="evenodd" clip-rule="evenodd" d="M811.778 138.583C811.778 140.409 810.298 141.889 808.472 141.889C806.647 141.889 805.167 140.409 805.167 138.583C805.167 136.758 806.647 135.278 808.472 135.278C810.298 135.278 811.778 136.758 811.778 138.583" fill="white"/>
<path fill-rule="evenodd" clip-rule="evenodd" d="M844.833 138.583C844.833 140.409 843.353 141.889 841.528 141.889C839.702 141.889 838.222 140.409 838.222 138.583C838.222 136.758 839.702 135.278 841.528 135.278C843.353 135.278 844.833 136.758 844.833 138.583" fill="white"/>
<path fill-rule="evenodd" clip-rule="evenodd" d="M877.889 138.583C877.889 140.409 876.409 141.889 874.583 141.889C872.758 141.889 871.278 140.409 871.278 138.583C871.278 136.758 872.758 135.278 874.583 135.278C876.409 135.278 877.889 136.758 877.889 138.583" fill="white"/>
<path fill-rule="evenodd" clip-rule="evenodd" d="M910.945 138.583C910.945 140.409 909.465 141.889 907.639 141.889C905.814 141.889 904.333 140.409 904.333 138.583C904.333 136.758 905.814 135.278 907.639 135.278C909.465 135.278 910.945 136.758 910.945 138.583" fill="white"/>
<path fill-rule="evenodd" clip-rule="evenodd" d="M944 138.583C944 140.409 942.52 141.889 940.694 141.889C938.869 141.889 937.389 140.409 937.389 138.583C937.389 136.758 938.869 135.278 940.694 135.278C942.52 135.278 944 136.758 944 138.583" fill="white"/>
<path fill-rule="evenodd" clip-rule="evenodd" d="M712.611 171.639C712.611 173.464 711.131 174.944 709.306 174.944C707.48 174.944 706 173.464 706 171.639C706 169.813 707.48 168.333 709.306 168.333C711.131 168.333 712.611 169.813 712.611 171.639" fill="white"/>
<path fill-rule="evenodd" clip-rule="evenodd" d="M745.667 171.639C745.667 173.464 744.187 174.944 742.361 174.944C740.536 174.944 739.056 173.464 739.056 171.639C739.056 169.813 740.536 168.333 742.361 168.333C744.187 168.333 745.667 169.813 745.667 171.639" fill="white"/>
<path fill-rule="evenodd" clip-rule="evenodd" d="M778.722 171.639C778.722 173.464 777.242 174.944 775.417 174.944C773.591 174.944 772.111 173.464 772.111 171.639C772.111 169.813 773.591 168.333 775.417 168.333C777.242 168.333 778.722 169.813 778.722 171.639" fill="white"/>
<path fill-rule="evenodd" clip-rule="evenodd" d="M811.778 171.639C811.778 173.464 810.298 174.944 808.472 174.944C806.647 174.944 805.167 173.464 805.167 171.639C805.167 169.813 806.647 168.333 808.472 168.333C810.298 168.333 811.778 169.813 811.778 171.639" fill="white"/>
<path fill-rule="evenodd" clip-rule="evenodd" d="M844.833 171.639C844.833 173.464 843.353 174.944 841.528 174.944C839.702 174.944 838.222 173.464 838.222 171.639C838.222 169.813 839.702 168.333 841.528 168.333C843.353 168.333 844.833 169.813 844.833 171.639" fill="white"/>
<path fill-rule="evenodd" clip-rule="evenodd" d="M877.889 171.639C877.889 173.464 876.409 174.944 874.583 174.944C872.758 174.944 871.278 173.464 871.278 171.639C871.278 169.813 872.758 168.333 874.583 168.333C876.409 168.333 877.889 169.813 877.889 171.639" fill="white"/>
<path fill-rule="evenodd" clip-rule="evenodd" d="M910.945 171.639C910.945 173.464 909.465 174.944 907.639 174.944C905.814 174.944 904.333 173.464 904.333 171.639C904.333 169.813 905.814 168.333 907.639 168.333C909.465 168.333 910.945 169.813 910.945 171.639" fill="white"/>
<path fill-rule="evenodd" clip-rule="evenodd" d="M944 171.639C944 173.464 942.52 174.944 940.694 174.944C938.869 174.944 937.389 173.464 937.389 171.639C937.389 169.813 938.869 168.333 940.694 168.333C942.52 168.333 944 169.813 944 171.639" fill="white"/>
<path fill-rule="evenodd" clip-rule="evenodd" d="M712.611 204.694C712.611 206.52 711.131 208 709.306 208C707.48 208 706 206.52 706 204.694C706 202.869 707.48 201.389 709.306 201.389C711.131 201.389 712.611 202.869 712.611 204.694" fill="white"/>
<path fill-rule="evenodd" clip-rule="evenodd" d="M745.667 204.694C745.667 206.52 744.187 208 742.361 208C740.536 208 739.056 206.52 739.056 204.694C739.056 202.869 740.536 201.389 742.361 201.389C744.187 201.389 745.667 202.869 745.667 204.694" fill="white"/>
<path fill-rule="evenodd" clip-rule="evenodd" d="M778.722 204.694C778.722 206.52 777.242 208 775.417 208C773.591 208 772.111 206.52 772.111 204.694C772.111 202.869 773.591 201.389 775.417 201.389C777.242 201.389 778.722 202.869 778.722 204.694" fill="white"/>
<path fill-rule="evenodd" clip-rule="evenodd" d="M811.778 204.694C811.778 206.52 810.298 208 808.472 208C806.647 208 805.167 206.52 805.167 204.694C805.167 202.869 806.647 201.389 808.472 201.389C810.298 201.389 811.778 202.869 811.778 204.694" fill="white"/>
<path fill-rule="evenodd" clip-rule="evenodd" d="M844.833 204.694C844.833 206.52 843.353 208 841.528 208C839.702 208 838.222 206.52 838.222 204.694C838.222 202.869 839.702 201.389 841.528 201.389C843.353 201.389 844.833 202.869 844.833 204.694" fill="white"/>
<path fill-rule="evenodd" clip-rule="evenodd" d="M877.889 204.694C877.889 206.52 876.409 208 874.583 208C872.758 208 871.278 206.52 871.278 204.694C871.278 202.869 872.758 201.389 874.583 201.389C876.409 201.389 877.889 202.869 877.889 204.694" fill="white"/>
<path fill-rule="evenodd" clip-rule="evenodd" d="M910.945 204.694C910.945 206.52 909.465 208 907.639 208C905.814 208 904.333 206.52 904.333 204.694C904.333 202.869 905.814 201.389 907.639 201.389C909.465 201.389 910.945 202.869 910.945 204.694" fill="white"/>
<path fill-rule="evenodd" clip-rule="evenodd" d="M944 204.694C944 206.52 942.52 208 940.694 208C938.869 208 937.389 206.52 937.389 204.694C937.389 202.869 938.869 201.389 940.694 201.389C942.52 201.389 944 202.869 944 204.694" fill="white"/>
</g>
<rect x="1203" y="165.858" width="20" height="20" transform="rotate(45 1203 165.858)" stroke="white" stroke-width="4"/>
<path fill-rule="evenodd" clip-rule="evenodd" d="M852 170C856.411 170 860 173.589 860 178H864C864 171.383 858.617 166 852 166C845.383 166 840 171.383 840 178H844C844 173.589 847.589 170 852 170" fill="white"/>
<path fill-rule="evenodd" clip-rule="evenodd" d="M1198 406C1191.38 406 1186 411.383 1186 418H1190C1190 413.589 1193.59 410 1198 410V406Z" fill="white"/>
<defs>
<filter id="filter0_d" x="1037" y="193" width="188" height="188" filterUnits="userSpaceOnUse" color-interpolation-filters="sRGB">
<feFlood flood-opacity="0" result="BackgroundImageFix"/>
<feColorMatrix in="SourceAlpha" type="matrix" values="0 0 0 0 0 0 0 0 0 0 0 0 0 0 0 0 0 0 127 0"/>
<feOffset dx="40" dy="2"/>
<feGaussianBlur stdDeviation="40"/>
<feColorMatrix type="matrix" values="0 0 0 0 0 0 0 0 0 0 0 0 0 0 0 0 0 0 0.5 0"/>
<feBlend mode="normal" in2="BackgroundImageFix" result="effect1_dropShadow"/>
<feBlend mode="normal" in="SourceGraphic" in2="effect1_dropShadow" result="shape"/>
</filter>
</defs>
</svg>
